<svg xmlns="http://www.w3.org/2000/svg" width="50" height="61.474" viewBox="0 0 50 61.474">
  <g id="Gruppe_2" data-name="Gruppe 2" transform="translate(-1029 -494.268)">
    <g id="layer1" transform="translate(1029 494.268)">
      <g id="g899" transform="translate(0 0)">
        <g id="g876">
          <path id="path890" d="M-47.2,183.976a6.359,6.359,0,0,0-6.349,6.351V239.1A6.359,6.359,0,0,0-47.2,245.45H-9.9A6.359,6.359,0,0,0-3.556,239.1v-40.1a5.257,5.257,0,0,0-.41-2.317,6.421,6.421,0,0,0-1.257-1.817l-.006-.008-9.253-9.076-.015-.015a7.32,7.32,0,0,0-1.961-1.255,7.166,7.166,0,0,0-2.8-.529l.021,0Z" transform="translate(53.548 -183.976)"/>
          <path id="rect2684" d="M-46.143,187.119h27.984a5.957,5.957,0,0,1,1.936.362,5.307,5.307,0,0,1,1.349.853l0,0,9.23,9.055a5.093,5.093,0,0,1,.826,1.191,4.522,4.522,0,0,1,.231,1.38q0,.022,0,.044v40.148a4.231,4.231,0,0,1-4.263,4.265H-46.143a4.231,4.231,0,0,1-4.263-4.265V191.383a4.231,4.231,0,0,1,4.263-4.265Z" transform="translate(52.542 -185.032)" fill="#f5f5f5"/>
          <path id="Pfad_5" data-name="Pfad 5" d="M7.491-11.208H9.509a3.821,3.821,0,0,0-.451-1.46,3.552,3.552,0,0,0-.909-1.069A4.007,4.007,0,0,0,6.9-14.394a4.776,4.776,0,0,0-1.48-.226,4.788,4.788,0,0,0-1.958.385,4.189,4.189,0,0,0-1.467,1.062,4.736,4.736,0,0,0-.916,1.587A5.923,5.923,0,0,0,.76-9.615a5.725,5.725,0,0,0,.319,1.932,4.614,4.614,0,0,0,.916,1.56A4.2,4.2,0,0,0,3.462-5.081,4.861,4.861,0,0,0,5.42-4.7a4.67,4.67,0,0,0,1.606-.266A3.725,3.725,0,0,0,8.3-5.738a3.848,3.848,0,0,0,.876-1.221,4.819,4.819,0,0,0,.412-1.606H7.571a2.7,2.7,0,0,1-.657,1.54,1.929,1.929,0,0,1-1.494.584,2.433,2.433,0,0,1-1.195-.272,2.28,2.28,0,0,1-.8-.724,3.14,3.14,0,0,1-.445-1.016,4.826,4.826,0,0,1-.139-1.162,5.187,5.187,0,0,1,.139-1.208,3.2,3.2,0,0,1,.445-1.042,2.256,2.256,0,0,1,.8-.73,2.433,2.433,0,0,1,1.195-.272,2.167,2.167,0,0,1,.737.126,2.143,2.143,0,0,1,.631.352,2.1,2.1,0,0,1,.465.524A1.7,1.7,0,0,1,7.491-11.208ZM12.43-8.061H10.412a3.131,3.131,0,0,0,.319,1.514,2.984,2.984,0,0,0,.9,1.049,3.823,3.823,0,0,0,1.3.6,5.989,5.989,0,0,0,1.52.193,5.837,5.837,0,0,0,1.706-.226,3.608,3.608,0,0,0,1.235-.631,2.625,2.625,0,0,0,.75-.963,2.9,2.9,0,0,0,.252-1.208,2.324,2.324,0,0,0-.339-1.308,2.828,2.828,0,0,0-.8-.817,3.531,3.531,0,0,0-.936-.445q-.471-.139-.737-.193-.89-.226-1.441-.372a5.343,5.343,0,0,1-.863-.292.948.948,0,0,1-.418-.319.852.852,0,0,1-.106-.451.891.891,0,0,1,.133-.5,1.153,1.153,0,0,1,.339-.332,1.35,1.35,0,0,1,.458-.186,2.443,2.443,0,0,1,.5-.053,3.555,3.555,0,0,1,.71.066,1.712,1.712,0,0,1,.578.226,1.173,1.173,0,0,1,.4.438,1.676,1.676,0,0,1,.179.7h2.018a2.911,2.911,0,0,0-.312-1.4,2.72,2.72,0,0,0-.843-.949,3.56,3.56,0,0,0-1.215-.538,6.031,6.031,0,0,0-1.427-.166A4.857,4.857,0,0,0,13-14.447a3.558,3.558,0,0,0-1.142.531,2.827,2.827,0,0,0-.817.9,2.482,2.482,0,0,0-.312,1.268,2.318,2.318,0,0,0,.246,1.109,2.345,2.345,0,0,0,.644.763,3.558,3.558,0,0,0,.9.5,9.077,9.077,0,0,0,1.036.325q.518.146,1.022.266a6.427,6.427,0,0,1,.9.279,1.948,1.948,0,0,1,.644.4.832.832,0,0,1,.246.624.916.916,0,0,1-.186.591,1.3,1.3,0,0,1-.465.365,2.079,2.079,0,0,1-.6.179,4.152,4.152,0,0,1-.6.046,3.169,3.169,0,0,1-.8-.1,1.983,1.983,0,0,1-.67-.305,1.508,1.508,0,0,1-.458-.538A1.739,1.739,0,0,1,12.43-8.061Zm11.6,3.147,3.147-9.48H25.03L22.892-7.729h-.027l-2.111-6.665H18.617l3.067,9.48Z" transform="translate(11.693 57.179)"/>
        </g>
      </g>
    </g>
    <path id="Pfad_3" data-name="Pfad 3" d="M960.66,512.945v22.787" transform="translate(93.234 -8.075)" fill="none" stroke="#000" stroke-linecap="round" stroke-width="3"/>
    <path id="Pfad_4" data-name="Pfad 4" d="M946.193,525.254l9.259,9.259,9.259-9.259" transform="translate(98.407 -6.434)" fill="none" stroke="#000" stroke-linecap="round" stroke-width="3"/>
  </g>
</svg>
