<svg xmlns="http://www.w3.org/2000/svg" width="50" height="61.474" viewBox="0 0 50 61.474">
  <g id="Gruppe_4" data-name="Gruppe 4" transform="translate(-1001 -494.268)">
    <g id="Gruppe_2" data-name="Gruppe 2" transform="translate(-28)">
      <g id="layer1" transform="translate(1029 494.268)">
        <g id="g899" transform="translate(0 0)">
          <g id="g876">
            <path id="path890" d="M-47.2,183.976a6.359,6.359,0,0,0-6.349,6.351V239.1A6.359,6.359,0,0,0-47.2,245.45H-9.9A6.359,6.359,0,0,0-3.556,239.1v-40.1a5.257,5.257,0,0,0-.41-2.317,6.421,6.421,0,0,0-1.257-1.817l-.006-.008-9.253-9.076-.015-.015a7.32,7.32,0,0,0-1.961-1.255,7.166,7.166,0,0,0-2.8-.529l.021,0Z" transform="translate(53.548 -183.976)"/>
            <path id="rect2684" d="M-46.143,187.119h27.984a5.957,5.957,0,0,1,1.936.362,5.307,5.307,0,0,1,1.349.853l0,0,9.23,9.055a5.093,5.093,0,0,1,.826,1.191,4.522,4.522,0,0,1,.231,1.38q0,.022,0,.044v40.148a4.231,4.231,0,0,1-4.263,4.265H-46.143a4.231,4.231,0,0,1-4.263-4.265V191.383a4.231,4.231,0,0,1,4.263-4.265Z" transform="translate(52.542 -185.032)" fill="#f5f5f5"/>
          </g>
        </g>
      </g>
      <path id="Pfad_3" data-name="Pfad 3" d="M960.66,512.945v22.787" transform="translate(93.234 -8.075)" fill="none" stroke="#000" stroke-linecap="round" stroke-width="3"/>
      <path id="Pfad_4" data-name="Pfad 4" d="M946.193,525.254l9.259,9.259,9.259-9.259" transform="translate(98.407 -6.434)" fill="none" stroke="#000" stroke-linecap="round" stroke-width="3"/>
    </g>
    <path id="Pfad_7" data-name="Pfad 7" d="M2.712-1.584v-5.4H4.056a3.042,3.042,0,0,1,1.17.2,1.836,1.836,0,0,1,.762.57,2.334,2.334,0,0,1,.414.894,5,5,0,0,1,.126,1.17,3.511,3.511,0,0,1-.18,1.2,2.2,2.2,0,0,1-.48.8,1.743,1.743,0,0,1-.684.438,2.42,2.42,0,0,1-.792.132ZM.828-8.568V0h3.7a4.1,4.1,0,0,0,1.71-.33,3.4,3.4,0,0,0,1.212-.906A3.8,3.8,0,0,0,8.172-2.6a5.936,5.936,0,0,0,.24-1.728,5.339,5.339,0,0,0-.294-1.86A3.656,3.656,0,0,0,7.3-7.512,3.347,3.347,0,0,0,6.066-8.3a4.412,4.412,0,0,0-1.542-.264ZM11.88-3.312,13-6.456h.024L14.1-3.312Zm.18-5.256L8.82,0h1.9l.672-1.908h3.2L15.24,0H17.2l-3.2-8.568Zm6.672,1.584V0h1.884V-6.984h2.568V-8.568h-7.02v1.584Zm5.436-1.584V0h6.5V-1.584h-4.62v-2.1H30.2V-5.148H26.052V-6.984h4.524V-8.568Zm7.776,0V0h1.884V-8.568Z" transform="translate(1009 546)"/>
  </g>
</svg>
