<svg xmlns="http://www.w3.org/2000/svg" width="41.515" height="41.5" viewBox="0 0 41.515 41.5">
    <g id="solution" transform="translate(0 -0.093)">
        <g id="Gruppe_171" data-name="Gruppe 171" transform="translate(0 0.093)">
            <path id="Pfad_145" data-name="Pfad 145" d="M103.667,106.978a14.173,14.173,0,1,0-16.548.013.608.608,0,0,0,.71-.988,12.956,12.956,0,1,1,15.127-.012.608.608,0,0,0,.712.987Z" transform="translate(-74.626 -74.72)" fill="#fff"/>
            <path id="Pfad_146" data-name="Pfad 146" d="M147.209,154.837a11.845,11.845,0,0,1,2.568-4.491,10.027,10.027,0,1,0-14.8.016,11.709,11.709,0,0,1,2.557,4.474,2.052,2.052,0,0,0-.917,3.427,2.052,2.052,0,0,0,.807,3.394v.467a2.119,2.119,0,0,0,2.117,2.117H145.2a2.119,2.119,0,0,0,2.117-2.117v-.467a2.052,2.052,0,0,0,.807-3.394,2.052,2.052,0,0,0-.915-3.426ZM133.558,143.63a8.825,8.825,0,0,1,8.745-8.85h.066a8.824,8.824,0,0,1,6.51,14.747,13.058,13.058,0,0,0-2.915,5.237h-1.388V152.03a2.005,2.005,0,0,1,.228-.926l2-3.815c.379-.725-.591-1.493-1.622-.438-.145.149-.156.149-.214.149s-.069,0-.214-.149a1.388,1.388,0,0,0-2.167,0c-.2.2-.227.2-.428,0a1.388,1.388,0,0,0-2.167,0c-.145.149-.156.149-.214.149s-.068,0-.214-.149c-1.031-1.055-2-.282-1.622.438l2,3.815a2,2,0,0,1,.228.926v2.734h-1.385a12.927,12.927,0,0,0-2.906-5.224A8.788,8.788,0,0,1,133.558,143.63Zm7.454,6.909-1.217-2.325a1.433,1.433,0,0,0,1.062-.514c.2-.2.227-.205.428,0a1.388,1.388,0,0,0,2.167,0c.2-.2.227-.205.428,0a1.434,1.434,0,0,0,1.063.514l-1.217,2.325a3.227,3.227,0,0,0-.366,1.49v2.734h-1.981V152.03A3.224,3.224,0,0,0,141.012,150.54Zm-2.941,5.44h8.6a.838.838,0,1,1,0,1.675h-8.6a.838.838,0,1,1,0-1.675Zm7.129,7.045h-5.662a.9.9,0,0,1-.9-.9v-.361H146.1v.361A.9.9,0,0,1,145.2,163.025Zm1.5-2.48h-.009l-.037,0h-8.572l-.037,0h-.009a.837.837,0,0,1,.034-1.674h8.6a.837.837,0,0,1,.034,1.674Z" transform="translate(-121.611 -122.741)" fill="#fff"/>
            <path id="Pfad_147" data-name="Pfad 147" d="M41.5,18.545a2.562,2.562,0,0,0-2.577-2.554h-.028a.243.243,0,0,1-.225-.18,18.5,18.5,0,0,0-1.731-4.15.282.282,0,0,1,.041-.339l0,0A2.565,2.565,0,0,0,36.958,7.7L33.8,4.558a2.556,2.556,0,0,0-3.623,0,.234.234,0,0,1-.313.062A18.514,18.514,0,0,0,25.673,2.9a.244.244,0,0,1-.183-.225V2.651A2.58,2.58,0,0,0,22.915.093h-.009L18.439.109A2.55,2.55,0,0,0,15.9,2.688v.025a.243.243,0,0,1-.181.226,18.512,18.512,0,0,0-4.178,1.748.234.234,0,0,1-.312-.059A2.555,2.555,0,0,0,7.6,4.649L4.465,7.81a2.566,2.566,0,0,0,0,3.623l.018.018a.257.257,0,0,1,.038.306,18.518,18.518,0,0,0-1.712,4.178.253.253,0,0,1-.244.183H2.558A2.58,2.58,0,0,0,0,18.7L.015,23.15A2.572,2.572,0,0,0,2.6,25.71H2.62a.244.244,0,0,1,.226.181,18.521,18.521,0,0,0,1.745,4.173.25.25,0,0,1-.057.317,2.566,2.566,0,0,0,.023,3.624l3.16,3.138a2.555,2.555,0,0,0,3.623,0,.234.234,0,0,1,.313-.062c.154.086.316.174.51.275A.626.626,0,0,0,13,37.122a.608.608,0,0,0-.251-.836c-.192-.1-.35-.185-.5-.268a1.441,1.441,0,0,0-1.78.274,1.339,1.339,0,0,1-1.895-.012l-3.16-3.138a1.349,1.349,0,0,1-.026-1.894,1.472,1.472,0,0,0,.259-1.786,17.3,17.3,0,0,1-1.63-3.9,1.468,1.468,0,0,0-1.38-1.069H2.582a1.355,1.355,0,0,1-1.351-1.348L1.216,18.7a1.361,1.361,0,0,1,1.347-1.364h.011a1.473,1.473,0,0,0,1.41-1.079,17.3,17.3,0,0,1,1.6-3.9,1.479,1.479,0,0,0-.235-1.758l-.032-.032a1.35,1.35,0,0,1,.012-1.9l3.138-3.16a1.339,1.339,0,0,1,1.895-.025,1.441,1.441,0,0,0,1.781.261,17.3,17.3,0,0,1,3.9-1.633,1.467,1.467,0,0,0,1.069-1.433,1.333,1.333,0,0,1,1.329-1.352l4.467-.016h0a1.362,1.362,0,0,1,1.36,1.4,1.467,1.467,0,0,0,1.078,1.371,17.3,17.3,0,0,1,3.914,1.605,1.438,1.438,0,0,0,1.7-.192,1.312,1.312,0,0,1,1.011-.469,1.382,1.382,0,0,1,.968.4L36.1,8.559a1.338,1.338,0,0,1,.025,1.9c-.558.524-.7,1.055-.428,1.5a16.15,16.15,0,0,1,1.8,4.189,1.467,1.467,0,0,0,1.438,1.068,1.349,1.349,0,0,1,1.347,1.378l.015,4.425a1.355,1.355,0,0,1-1.351,1.358H38.9a1.467,1.467,0,0,0-1.37,1.078,17.286,17.286,0,0,1-1.843,4.325.624.624,0,0,0-.043.573,2.561,2.561,0,0,0,.554.8,1.28,1.28,0,0,1,.383.916,1.379,1.379,0,0,1-.395.979l-3.138,3.16a1.339,1.339,0,0,1-1.9.025,1.442,1.442,0,0,0-1.782-.26c-.173.1-.358.2-.58.315a.626.626,0,0,0-.292.815.608.608,0,0,0,.829.277c.248-.129.453-.24.646-.35a.234.234,0,0,1,.313.058,2.555,2.555,0,0,0,3.624-.022l3.138-3.16a2.6,2.6,0,0,0,.748-1.847,2.487,2.487,0,0,0-.751-1.777A1.33,1.33,0,0,1,36.9,30.1a18.5,18.5,0,0,0,1.8-4.336.242.242,0,0,1,.222-.182h.029A2.572,2.572,0,0,0,41.515,23Z" transform="translate(0 -0.093)" fill="#fff"/>
        </g>
    </g>
</svg>
