<svg xmlns="http://www.w3.org/2000/svg" width="42.844" height="41.5" viewBox="0 0 42.844 41.5">
    <g id="support_1_" data-name="support (1)" transform="translate(0 -8.029)">
        <g id="Gruppe_173" data-name="Gruppe 173" transform="translate(0 8.029)">
            <path id="Pfad_152" data-name="Pfad 152" d="M1.315,25.315a2.454,2.454,0,0,0,2.54-.152l.392-.27V27.9a.628.628,0,1,0,1.255,0v-3.87L20.779,13.5a1.139,1.139,0,0,1,1.285,0L37.341,24.028V38.742a.628.628,0,1,0,1.255,0V24.893l.392.27a2.46,2.46,0,0,0,2.792-4.052L23.91,8.8a4.408,4.408,0,0,0-4.975,0L1.064,21.112a2.461,2.461,0,0,0,.252,4.2Zm.461-3.17L19.647,9.832a3.147,3.147,0,0,1,3.551,0L41.068,22.145a1.2,1.2,0,0,1-.123,2.059,1.186,1.186,0,0,1-1.244-.074L22.777,12.468a2.4,2.4,0,0,0-2.709,0L3.143,24.13A1.187,1.187,0,0,1,1.9,24.2,1.2,1.2,0,0,1,1.776,22.145Z" transform="translate(0 -8.029)" fill="#fff"/>
            <path id="Pfad_153" data-name="Pfad 153" d="M40.591,287.693H38.765v-3.022a.628.628,0,0,0-1.255,0v3.022H5.671V273.822a.628.628,0,0,0-1.255,0v13.872H2.59a2.406,2.406,0,0,0,0,4.812h38a2.406,2.406,0,0,0,0-4.812Zm0,3.556h-38a1.151,1.151,0,1,1,0-2.3h38a1.151,1.151,0,1,1,0,2.3Z" transform="translate(-0.169 -251.005)" fill="#fff"/>
            <path id="Pfad_154" data-name="Pfad 154" d="M139.507,153.978l-.009-2.449h0a1.7,1.7,0,0,0-1.6-1.7,10.48,10.48,0,0,0-.9-2.149,1.713,1.713,0,0,0-.088-2.332l-1.743-1.731a1.694,1.694,0,0,0-2.324-.062,10.476,10.476,0,0,0-2.154-.884,1.7,1.7,0,0,0-1.709-1.587l-2.449.009a1.7,1.7,0,0,0-1.7,1.6,10.482,10.482,0,0,0-2.149.9,1.713,1.713,0,0,0-2.332.088l-1.723,1.735a1.708,1.708,0,0,0-.069,2.33,10.479,10.479,0,0,0-.884,2.155,1.7,1.7,0,0,0-1.587,1.709l.009,2.449a1.7,1.7,0,0,0,1.6,1.7,10.476,10.476,0,0,0,.9,2.148,1.7,1.7,0,0,0,.083,2.327l1.733,1.721a1.723,1.723,0,0,0,2.337.076,10.479,10.479,0,0,0,2.156.885,1.7,1.7,0,0,0,1.7,1.587h.006l2.449-.009a1.7,1.7,0,0,0,1.7-1.6,10.472,10.472,0,0,0,2.148-.9,1.706,1.706,0,0,0,2.33-.086l1.728-1.74a1.7,1.7,0,0,0,.067-2.329,10.477,10.477,0,0,0,.884-2.154,1.7,1.7,0,0,0,1.587-1.708Zm-1.718.457a1.1,1.1,0,0,0-1.049.809,9.216,9.216,0,0,1-.855,2.084,1.1,1.1,0,0,0,.166,1.3l.023.023a.447.447,0,0,1,0,.634l-1.728,1.74a.451.451,0,0,1-.635,0l-.005-.005L133.69,161a1.1,1.1,0,0,0-1.3-.156,9.223,9.223,0,0,1-2.078.869,1.1,1.1,0,0,0-.8,1.047v.031a.446.446,0,0,1-.449.442l-2.449.009h0a.446.446,0,0,1-.451-.439,1.086,1.086,0,0,0-.809-1.072,9.218,9.218,0,0,1-2.083-.854,1.1,1.1,0,0,0-1.3.164l-.019.019a.463.463,0,0,1-.65,0l-1.733-1.721a.447.447,0,0,1,0-.631l.007-.007.021-.021a1.1,1.1,0,0,0,.156-1.3,9.219,9.219,0,0,1-.87-2.078,1.083,1.083,0,0,0-1.006-.8.476.476,0,0,1-.378-.127.454.454,0,0,1-.136-.324l-.009-2.449a.446.446,0,0,1,.434-.452h.028a1.1,1.1,0,0,0,1.049-.809,9.218,9.218,0,0,1,.855-2.083,1.1,1.1,0,0,0-.164-1.3l-.024-.024a.451.451,0,0,1,0-.637l1.723-1.735a.454.454,0,0,1,.639-.006l0,0,0,0a1.117,1.117,0,0,0,1.332.166,9.219,9.219,0,0,1,2.064-.862,1.1,1.1,0,0,0,.8-1.052v-.026a.446.446,0,0,1,.449-.442l2.449-.009h0a.446.446,0,0,1,.451.437,1.085,1.085,0,0,0,.808,1.074,9.217,9.217,0,0,1,2.084.855,1.1,1.1,0,0,0,1.3-.166l.026-.026a.44.44,0,0,1,.626-.005l1.743,1.731a.455.455,0,0,1,0,.641l-.022.023a1.1,1.1,0,0,0-.156,1.3,9.22,9.22,0,0,1,.869,2.078,1.085,1.085,0,0,0,1.082.8.446.446,0,0,1,.438.449h0l.009,2.449A.451.451,0,0,1,137.789,154.435Z" transform="translate(-106.378 -129.953)" fill="#fff"/>
        </g>
        <path id="Pfad_155" data-name="Pfad 155" d="M94.209,96.165a8.2,8.2,0,1,0-9.579.007.352.352,0,0,0,.411-.572,7.5,7.5,0,1,1,8.756-.007.352.352,0,0,0,.412.571Z" transform="translate(-68.103 -58.256)" fill="#fff"/>
        <path id="Pfad_156" data-name="Pfad 156" d="M140.947,145.877a6.855,6.855,0,0,1,1.486-2.6,5.8,5.8,0,1,0-8.568.009,6.777,6.777,0,0,1,1.48,2.59,1.188,1.188,0,0,0-.531,1.984,1.188,1.188,0,0,0,.467,1.964v.27a1.227,1.227,0,0,0,1.225,1.225h3.277a1.227,1.227,0,0,0,1.225-1.225v-.27a1.188,1.188,0,0,0,.467-1.964,1.188,1.188,0,0,0-.529-1.983Zm-7.9-6.487a5.108,5.108,0,0,1,5.062-5.123h.038a5.107,5.107,0,0,1,3.768,8.536,7.558,7.558,0,0,0-1.688,3.031h-.8v-1.582a1.161,1.161,0,0,1,.132-.536l1.156-2.208c.22-.42-.342-.864-.939-.254-.084.086-.09.086-.124.086s-.04,0-.124-.086a.8.8,0,0,0-1.255,0c-.116.119-.132.119-.248,0a.8.8,0,0,0-1.254,0c-.084.086-.09.086-.124.086s-.04,0-.124-.086c-.6-.611-1.157-.163-.939.254l1.156,2.208a1.16,1.16,0,0,1,.132.536v1.582h-.8a7.482,7.482,0,0,0-1.682-3.023A5.086,5.086,0,0,1,133.046,139.39Zm4.314,4-.7-1.346a.83.83,0,0,0,.615-.3c.116-.118.132-.119.248,0a.8.8,0,0,0,1.254,0c.116-.118.132-.119.248,0a.83.83,0,0,0,.615.3l-.7,1.346a1.868,1.868,0,0,0-.212.862v1.582h-1.146v-1.582A1.866,1.866,0,0,0,137.36,143.39Zm-1.7,3.149h4.975a.485.485,0,1,1,0,.97h-4.975a.485.485,0,1,1,0-.97Zm4.126,4.078h-3.277a.522.522,0,0,1-.521-.521v-.209h4.32v.209A.522.522,0,0,1,139.784,150.616Zm.869-1.435h-5.014a.485.485,0,0,1,.019-.969h4.975a.485.485,0,0,1,.02.969Z" transform="translate(-116.834 -108.062)" fill="#fff"/>
    </g>
</svg>
