<svg xmlns="http://www.w3.org/2000/svg" width="50" height="61.474" viewBox="0 0 50 61.474">
  <g id="Gruppe_1" data-name="Gruppe 1" transform="translate(-923 -494.268)">
    <g id="layer1" transform="translate(923 494.268)">
      <g id="g899" transform="translate(0 0)">
        <g id="g876">
          <path id="path890" d="M-47.2,183.976a6.359,6.359,0,0,0-6.349,6.351V239.1A6.359,6.359,0,0,0-47.2,245.45H-9.9A6.359,6.359,0,0,0-3.556,239.1v-40.1a5.257,5.257,0,0,0-.41-2.317,6.421,6.421,0,0,0-1.257-1.817l-.006-.008-9.253-9.076-.015-.015a7.32,7.32,0,0,0-1.961-1.255,7.166,7.166,0,0,0-2.8-.529l.021,0Z" transform="translate(53.548 -183.976)"/>
          <path id="rect2684" d="M-46.156,187.119h27.9a5.938,5.938,0,0,1,1.93.361,5.29,5.29,0,0,1,1.345.851l0,0,9.2,9.033a5.08,5.08,0,0,1,.823,1.188,4.514,4.514,0,0,1,.23,1.377q0,.022,0,.044v40.053a4.22,4.22,0,0,1-4.25,4.255H-46.156a4.22,4.22,0,0,1-4.25-4.255V191.373a4.22,4.22,0,0,1,4.25-4.255Z" transform="translate(52.612 -184.964)" fill="#f5f5f5"/>
          <path id="Pfad_6" data-name="Pfad 6" d="M5.112-4.6l3.051-9.788H6.078L4.005-7.5H3.979L1.933-14.387H-.14L2.834-4.6Zm9.964-6.5h1.957A4.132,4.132,0,0,0,16.6-12.6a3.617,3.617,0,0,0-.882-1.1,3.812,3.812,0,0,0-1.21-.679,4.372,4.372,0,0,0-1.435-.233,4.4,4.4,0,0,0-1.9.4,4.083,4.083,0,0,0-1.422,1.1,4.975,4.975,0,0,0-.888,1.638,6.478,6.478,0,0,0-.309,2.036,6.261,6.261,0,0,0,.309,1.995,4.841,4.841,0,0,0,.888,1.611A4.084,4.084,0,0,0,11.169-4.77a4.464,4.464,0,0,0,1.9.391,4.279,4.279,0,0,0,1.558-.274,3.578,3.578,0,0,0,1.236-.8,3.976,3.976,0,0,0,.85-1.261,5.237,5.237,0,0,0,.4-1.659H15.153a2.882,2.882,0,0,1-.637,1.59,1.812,1.812,0,0,1-1.448.6,2.243,2.243,0,0,1-1.159-.281,2.267,2.267,0,0,1-.772-.747,3.352,3.352,0,0,1-.431-1.049,5.291,5.291,0,0,1-.135-1.2,5.688,5.688,0,0,1,.135-1.248,3.42,3.42,0,0,1,.431-1.076,2.246,2.246,0,0,1,.772-.754,2.243,2.243,0,0,1,1.159-.281,1.986,1.986,0,0,1,.714.13,2.046,2.046,0,0,1,.611.363,2.126,2.126,0,0,1,.451.542A1.831,1.831,0,0,1,15.076-11.1Zm3.411-3.29V-4.6h2.021V-8.643h3.849v-1.673H20.509v-2.262H24.95v-1.81Z" transform="translate(12.382 56.563)"/>
        </g>
      </g>
    </g>
    <path id="Pfad_1" data-name="Pfad 1" d="M960.66,512.945v23.529" transform="translate(-12.766 -8.279)" fill="none" stroke="#000" stroke-linecap="round" stroke-width="3"/>
    <path id="Pfad_2" data-name="Pfad 2" d="M946.193,525.254l9.561,9.56,9.56-9.56" transform="translate(-7.892 -6.575)" fill="none" stroke="#000" stroke-linecap="round" stroke-width="3"/>
  </g>
</svg>
