<?xml version="1.0" encoding="utf-8"?>
<!-- Generator: Adobe Illustrator 25.3.1, SVG Export Plug-In . SVG Version: 6.00 Build 0)  -->
<svg version="1.1" id="Ebene_1" xmlns="http://www.w3.org/2000/svg" xmlns:xlink="http://www.w3.org/1999/xlink" x="0px" y="0px"
	 viewBox="0 0 100 100" style="enable-background:new 0 0 100 100;" xml:space="preserve">
<style type="text/css">
	.st0{fill:none;stroke:#000000;stroke-width:4;stroke-linecap:round;stroke-linejoin:round;}
	.st1{fill:#00AAFF;stroke:#000000;stroke-width:3;stroke-linecap:round;stroke-linejoin:round;}
</style>
<desc>Created with Sketch.</desc>
<g transform="translate(2.000000, 10.000000)">
	<path id="Layer-1" class="st0" d="M8.8,12.2V9.6l0,0C8.8,8.2,10,7,11.4,7h3.5c1.5,0,2.6,1.2,2.6,2.6v2.6"/>
	<path id="Layer-2_1_" class="st0" d="M87.7,42.8v-27c0-1.5-1.2-2.6-2.6-2.6H65L58.6,2.3C57.9,1,56.1,0,54.7,0H33.1
		c-1.4,0-3.2,1-4,2.3l-6.4,10.9l0,0H2.6c-1.5,0-2.6,1.2-2.6,2.6V71c0,1.5,1.2,2.6,2.6,2.6H55"/>
	<circle id="Layer-3" class="st0" cx="43.9" cy="43.9" r="19.3"/>
	<path id="Layer-4" class="st0" d="M39.5,32.5c-2.7,0-7,4.2-7,7"/>
	<path id="Layer-5" class="st0" d="M35.1,10.5h17.5"/>
</g>
<circle class="st1" cx="82" cy="75.6" r="15"/>
<g>
	<path d="M75.5,76.9c-0.4,0-0.6-0.1-0.9-0.3s-0.3-0.5-0.3-0.8s0.1-0.6,0.3-0.8c0.2-0.2,0.5-0.3,0.9-0.3h12.9c0.4,0,0.6,0.1,0.9,0.3
		c0.2,0.2,0.3,0.5,0.3,0.8s-0.1,0.6-0.3,0.8c-0.2,0.2-0.5,0.3-0.9,0.3H75.5z M81.9,83.4c-0.4,0-0.7-0.1-1-0.4s-0.4-0.6-0.4-0.9v-13
		c0-0.4,0.1-0.7,0.4-1s0.6-0.4,1-0.4s0.7,0.1,1,0.4c0.2,0.3,0.4,0.6,0.4,1V82c0,0.4-0.1,0.7-0.4,1S82.3,83.4,81.9,83.4z"/>
</g>
</svg>
