<?xml version="1.0" standalone="no"?>
<!DOCTYPE svg PUBLIC "-//W3C//DTD SVG 20010904//EN"
 "http://www.w3.org/TR/2001/REC-SVG-20010904/DTD/svg10.dtd">
<svg version="1.0" xmlns="http://www.w3.org/2000/svg"
 width="1184.000000pt" height="1184.000000pt" viewBox="0 0 1184.000000 1184.000000"
 preserveAspectRatio="xMidYMid meet">
<metadata>
Created by potrace 1.14, written by Peter Selinger 2001-2017
</metadata>
<g transform="translate(0.000000,1184.000000) scale(0.100000,-0.100000)"
fill="#000000" stroke="none">
<path d="M9 8538 c5 -13 16 -36 25 -53 9 -16 16 -33 16 -37 0 -5 14 -38 31
-75 17 -38 37 -81 44 -98 12 -28 41 -93 70 -160 8 -16 39 -88 71 -160 31 -71
65 -150 76 -175 11 -25 26 -58 33 -75 8 -16 25 -56 39 -88 14 -32 26 -60 26
-63 0 -2 13 -32 29 -67 17 -34 45 -98 64 -142 19 -44 45 -102 57 -130 12 -27
28 -64 35 -80 8 -17 24 -53 36 -80 12 -28 23 -52 23 -55 1 -3 32 -75 70 -160
37 -85 74 -169 81 -185 8 -17 24 -53 36 -80 12 -28 23 -52 24 -55 0 -3 9 -23
19 -45 10 -22 24 -53 31 -70 8 -16 30 -67 49 -112 20 -45 36 -86 36 -92 0 -6
4 -11 9 -11 5 0 12 -11 15 -24 3 -14 22 -59 41 -100 19 -42 35 -78 35 -80 0
-2 10 -25 22 -52 12 -27 23 -51 23 -54 1 -3 10 -25 22 -50 11 -25 53 -119 93
-210 39 -91 83 -189 96 -218 13 -29 24 -55 24 -57 0 -3 18 -43 40 -90 22 -47
40 -92 40 -100 0 -8 4 -15 9 -15 5 0 12 -11 15 -25 4 -14 19 -54 35 -88 16
-34 43 -96 61 -137 18 -41 41 -94 51 -117 29 -65 53 -119 94 -213 20 -47 45
-103 55 -125 10 -23 57 -131 105 -240 48 -110 95 -216 103 -235 9 -19 16 -37
17 -40 1 -3 12 -27 24 -55 23 -51 46 -104 62 -140 4 -11 24 -55 44 -98 19 -43
35 -80 35 -82 0 -2 14 -34 32 -72 17 -37 32 -71 33 -75 2 -5 4 -10 5 -13 1 -3
4 -8 5 -12 1 -5 11 -27 21 -50 l19 -43 1223 0 1223 0 25 58 c56 125 66 149 85
188 10 22 19 43 19 46 0 7 65 152 81 180 5 10 9 25 9 33 0 8 5 15 10 15 6 0
10 6 10 14 0 7 12 40 27 72 15 33 28 61 29 64 0 3 10 27 22 53 12 27 22 53 22
58 0 5 4 9 8 9 5 0 9 6 9 13 0 6 9 32 20 57 12 25 40 88 63 140 23 52 55 123
71 158 16 35 29 65 29 68 0 2 34 82 76 177 42 95 82 186 89 202 51 117 100
228 121 273 13 29 24 55 24 58 0 3 13 33 29 67 16 34 43 96 61 137 18 41 44
100 58 130 14 30 26 57 27 60 5 15 19 50 35 85 46 100 78 172 84 193 13 41 15
39 86 -128 18 -41 40 -93 50 -115 38 -86 53 -120 54 -125 1 -3 7 -15 14 -26 6
-12 8 -24 5 -28 -3 -3 -1 -6 5 -6 7 0 12 -6 12 -14 0 -8 9 -31 19 -53 11 -21
26 -54 34 -73 8 -19 24 -55 35 -80 11 -25 53 -120 92 -210 84 -194 90 -208
123 -280 14 -30 48 -109 77 -175 28 -66 60 -138 70 -160 9 -22 43 -98 74 -170
32 -71 69 -154 82 -183 13 -29 24 -54 24 -57 0 -2 16 -38 35 -79 19 -42 35
-78 35 -81 0 -3 13 -33 29 -67 33 -70 161 -362 166 -378 1 -3 13 -31 28 -62
l26 -58 1225 0 c746 0 1226 4 1226 9 0 5 16 45 36 88 20 43 37 84 37 91 0 6 4
12 9 12 4 0 8 5 8 11 0 6 6 25 14 42 8 18 28 63 45 100 17 38 31 70 31 72 0 3
34 80 86 193 13 29 24 54 24 57 0 3 14 34 81 184 11 24 29 66 40 92 10 27 30
72 44 99 14 27 25 51 24 52 -2 3 27 71 59 138 9 19 17 37 17 40 0 3 13 32 29
65 15 33 36 80 46 105 10 25 32 75 49 112 17 37 42 96 57 130 14 35 30 67 35
73 5 5 9 15 9 22 0 12 43 115 61 143 5 8 12 22 15 30 13 33 127 298 144 335
10 22 59 132 108 245 49 113 99 228 111 255 37 82 45 101 136 310 48 110 103
232 121 272 19 40 34 75 34 79 0 3 16 40 35 81 19 41 35 76 35 79 0 5 49 115
60 136 6 10 10 25 10 33 0 8 5 15 10 15 6 0 10 5 10 11 0 6 7 27 16 47 9 21
20 46 25 57 4 11 26 59 48 108 22 48 39 89 39 90 -1 1 8 22 19 47 12 25 28 61
36 80 8 19 25 58 38 85 13 28 23 52 24 55 0 3 13 31 28 64 15 32 27 60 27 62
0 2 16 38 35 80 19 41 35 81 35 89 0 7 7 18 15 25 8 7 15 19 15 26 0 8 4 22 9
32 5 9 16 33 24 52 9 19 29 65 46 102 17 37 31 69 31 72 0 2 14 35 31 73 50
111 57 126 78 176 l20 47 -1159 0 -1159 0 -7 -22 c-3 -13 -28 -81 -54 -153
-26 -71 -73 -200 -104 -285 -32 -85 -60 -162 -63 -170 -4 -8 -7 -17 -8 -20 0
-3 -11 -32 -24 -65 -12 -33 -24 -68 -26 -77 -2 -10 -10 -32 -18 -50 -8 -18
-27 -67 -41 -108 -15 -41 -31 -84 -36 -95 -5 -11 -21 -56 -36 -100 -15 -44
-32 -86 -37 -92 -5 -7 -7 -13 -4 -13 5 0 -4 -25 -48 -135 -4 -11 -10 -28 -12
-38 -1 -10 -10 -31 -18 -47 -8 -16 -15 -33 -15 -39 0 -5 -5 -22 -12 -38 -6
-15 -12 -30 -13 -33 -1 -3 -7 -18 -13 -33 -7 -16 -12 -34 -12 -41 0 -6 -4 -16
-8 -21 -5 -6 -15 -30 -22 -55 -8 -25 -17 -49 -20 -55 -4 -5 -10 -19 -13 -30
-3 -11 -23 -69 -45 -130 -23 -60 -55 -148 -72 -195 -17 -47 -33 -92 -37 -100
-3 -8 -7 -18 -8 -22 -2 -5 -3 -9 -5 -10 -1 -2 -3 -10 -5 -18 -5 -20 -53 -149
-65 -175 -5 -11 -12 -31 -15 -45 -4 -14 -13 -38 -20 -55 -7 -16 -18 -46 -25
-65 -7 -19 -16 -44 -20 -55 -10 -22 -121 -329 -151 -415 -11 -30 -24 -64 -28
-75 -5 -11 -16 -42 -26 -70 -9 -27 -19 -57 -22 -65 -4 -8 -5 -19 -4 -25 5 -21
-17 11 -27 40 -25 73 -153 422 -161 440 -5 11 -14 34 -19 50 -24 68 -134 372
-142 390 -8 18 -55 147 -127 350 -14 39 -31 84 -38 100 -7 17 -16 41 -20 55
-3 14 -11 36 -17 50 -24 55 -69 180 -94 258 -7 23 -17 48 -21 55 -4 7 -8 17
-9 22 -3 13 -163 454 -189 520 -4 11 -9 25 -10 30 -2 6 -16 46 -33 90 -26 70
-108 294 -229 625 -19 52 -48 132 -65 178 l-31 82 -1161 -2 c-765 -2 -1161 -6
-1162 -13 -1 -13 -13 -45 -25 -67 -5 -10 -9 -23 -9 -29 0 -6 -6 -25 -14 -42
-21 -48 -157 -420 -160 -437 -1 -8 -7 -26 -14 -40 -12 -26 -232 -627 -236
-645 -1 -5 -10 -27 -19 -49 -9 -21 -17 -44 -17 -50 0 -7 -4 -16 -8 -22 -4 -5
-16 -34 -26 -64 -10 -30 -22 -64 -27 -75 -5 -11 -26 -69 -48 -130 -21 -60 -56
-155 -77 -210 -20 -55 -37 -106 -37 -112 0 -7 -3 -13 -7 -13 -4 0 -7 -6 -7
-12 -1 -7 -49 -141 -108 -298 -58 -157 -108 -292 -110 -300 -5 -22 -64 -181
-75 -205 -5 -11 -20 -51 -34 -90 -13 -38 -41 -115 -61 -170 -20 -55 -48 -134
-63 -175 -14 -41 -28 -77 -30 -80 -5 -8 -20 22 -37 75 -9 28 -19 59 -24 70 -5
11 -18 47 -30 80 -12 33 -27 68 -32 77 -5 10 -9 26 -9 36 0 10 -4 22 -8 28 -4
5 -14 27 -21 49 -7 22 -16 49 -22 60 -9 21 -109 293 -113 310 -2 6 -7 19 -11
30 -17 42 -160 433 -216 590 -10 28 -32 88 -49 135 -18 47 -38 103 -46 125 -7
22 -27 78 -45 125 -38 102 -81 221 -143 395 -26 72 -51 139 -56 150 -13 33
-35 90 -35 95 -1 7 -35 98 -50 135 -7 17 -30 80 -50 140 -21 61 -42 114 -47
120 -4 5 -8 18 -8 30 0 12 -4 25 -8 30 -8 9 -64 156 -68 180 -2 11 -60 167
-74 200 -5 11 -12 30 -15 43 l-6 22 -1159 0 -1160 0 9 -22z"/>
</g>
</svg>
