<?xml version="1.0" encoding="utf-8"?>
<!-- Generator: Adobe Illustrator 25.3.1, SVG Export Plug-In . SVG Version: 6.00 Build 0)  -->
<svg version="1.1" id="Layer_1" xmlns="http://www.w3.org/2000/svg" xmlns:xlink="http://www.w3.org/1999/xlink" x="0px" y="0px"
	 viewBox="0 0 604.1 93.8" style="enable-background:new 0 0 604.1 93.8;" xml:space="preserve">
<style type="text/css">
	.st0{fill:url(#SVGID_1_);}
	.st1{fill:url(#SVGID_2_);}
	.st2{fill:url(#SVGID_3_);}
	.st3{fill:url(#SVGID_4_);}
	.st4{fill:url(#SVGID_5_);}
	.st5{fill:url(#SVGID_6_);}
	.st6{fill:url(#SVGID_7_);}
	.st7{fill:url(#SVGID_8_);}
	.st8{fill:url(#SVGID_9_);}
	.st9{fill:url(#SVGID_10_);}
	.st10{fill:url(#SVGID_11_);}
	.st11{fill:url(#SVGID_12_);}
	.st12{fill:url(#SVGID_13_);}
	.st13{fill:url(#SVGID_14_);}
	.st14{fill:url(#SVGID_15_);}
	.st15{fill:url(#SVGID_16_);}
	.st16{fill:url(#SVGID_17_);}
	.st17{fill:url(#SVGID_18_);}
	.st18{fill:url(#SVGID_19_);}
	.st19{fill:url(#SVGID_20_);}
	.st20{fill:url(#SVGID_21_);}
	.st21{fill:url(#SVGID_22_);}
	.st22{fill:url(#SVGID_23_);}
	.st23{fill:url(#SVGID_24_);}
	.st24{fill:url(#SVGID_25_);}
	.st25{fill:url(#SVGID_26_);}
</style>
<g>
	<g>
		<g>
			<g>
				
					<linearGradient id="SVGID_1_" gradientUnits="userSpaceOnUse" x1="127.4592" y1="-44.3245" x2="196.7868" y2="45.5083" gradientTransform="matrix(1 0 0 -1 0 96.9401)">
					<stop  offset="0" style="stop-color:#7BD3F7"/>
					<stop  offset="1" style="stop-color:#0072BC"/>
				</linearGradient>
				<path class="st0" d="M176.1,71.8c-0.6-0.5-1.6-0.9-2.4-0.9l-13.9,0c-0.8,0-1.4,0-1.4,0l0,0c0,0,0.5,0.4,1,0.9l7.5,6.5
					c0.6,0.5,1.5,1.3,2.1,1.8l7.5,6.5c0.6,0.5,1.7,0.9,2.4,0.9l12.9,0c0.8,0,0.9-0.4,0.4-0.9L176.1,71.8z"/>
			</g>
			<g>
				
					<linearGradient id="SVGID_2_" gradientUnits="userSpaceOnUse" x1="115.472" y1="-35.0731" x2="184.7992" y2="54.7592" gradientTransform="matrix(1 0 0 -1 0 96.9401)">
					<stop  offset="0" style="stop-color:#7BD3F7"/>
					<stop  offset="1" style="stop-color:#0072BC"/>
				</linearGradient>
				<path class="st1" d="M156.5,71.8c-0.6-0.5-1-0.9-1-0.9s-0.6,0-1.4,0l-5.6,0c-0.8,0-2,0-2.8,0l-5.5,0c-0.8,0-1.4,0-1.4,0
					s0.5,0.4,1,0.9l7.5,6.5c0.6,0.5,1.5,1.3,2.1,1.8l7.5,6.5c0.6,0.5,1.7,0.9,2.4,0.9l13.9,0c0.8,0,0.9-0.4,0.3-0.9l-7.5-6.5
					c-0.6-0.5-1.5-1.3-2.1-1.8L156.5,71.8z"/>
			</g>
			<g>
				
					<linearGradient id="SVGID_3_" gradientUnits="userSpaceOnUse" x1="94.1735" y1="-18.6329" x2="163.4989" y2="71.1971" gradientTransform="matrix(1 0 0 -1 0 96.9401)">
					<stop  offset="0" style="stop-color:#7BD3F7"/>
					<stop  offset="1" style="stop-color:#0072BC"/>
				</linearGradient>
				<path class="st2" d="M126.6,60.5c0.6,0.5,1.5,1.3,2.1,1.8l6.7,5.8c0.6,0.5,1.7,0.9,2.4,0.9l5.5,0c0.8,0,2,0,2.8,0l5.6,0
					c0.8,0,1.4,0,1.4,0c0,0-0.5-0.4-1-0.9l-6.7-5.8c-0.6-0.5-1.5-1.3-2.1-1.8l-6.7-5.8c-0.6-0.5-1-0.9-1-0.9c0,0,0,0,0,0
					s-0.6,0-1.4,0l-5.6,0c-0.8,0-2,0-2.8,0l-5.6,0c-0.8,0-1.4,0-1.4,0c0,0,0.5,0.4,1,0.9L126.6,60.5z"/>
			</g>
			<g>
				
					<linearGradient id="SVGID_4_" gradientUnits="userSpaceOnUse" x1="102.829" y1="-25.3155" x2="172.1566" y2="64.5174" gradientTransform="matrix(1 0 0 -1 0 96.9401)">
					<stop  offset="0" style="stop-color:#7BD3F7"/>
					<stop  offset="1" style="stop-color:#0072BC"/>
				</linearGradient>
				<path class="st3" d="M136.8,71.9c-0.6-0.5-1-0.9-1-0.9c0,0-0.6,0-1.4,0l-14.9,0c-0.8,0-1.4,0-1.5,0s0.4,0.4,0.9,0.9L135,86.7
					c0.6,0.5,1.6,0.9,2.4,0.9l16.1,0c0.8,0,0.9-0.4,0.3-0.9l-7.5-6.5c-0.6-0.5-1.5-1.3-2.1-1.8L136.8,71.9z"/>
			</g>
			<g>
				
					<linearGradient id="SVGID_5_" gradientUnits="userSpaceOnUse" x1="106.4874" y1="-28.1415" x2="175.8153" y2="61.6917" gradientTransform="matrix(1 0 0 -1 0 96.9401)">
					<stop  offset="0" style="stop-color:#7BD3F7"/>
					<stop  offset="1" style="stop-color:#0072BC"/>
				</linearGradient>
				<path class="st4" d="M146.3,60.4c0.6,0.5,1.5,1.3,2.1,1.8l6.7,5.8c0.6,0.5,1,0.9,1,0.9c0,0,0,0,0,0c0,0,0.6,0,1.4,0l14,0
					c0.8,0,0.9-0.4,0.4-0.9l-14.7-13.4c-0.6-0.5-1.6-0.9-2.4-0.9l-14.9,0c-0.8,0-0.9,0.4-0.3,0.9L146.3,60.4z"/>
			</g>
			<g>
				
					<linearGradient id="SVGID_6_" gradientUnits="userSpaceOnUse" x1="81.8043" y1="-9.0853" x2="151.127" y2="80.7412" gradientTransform="matrix(1 0 0 -1 0 96.9401)">
					<stop  offset="0" style="stop-color:#7BD3F7"/>
					<stop  offset="1" style="stop-color:#0072BC"/>
				</linearGradient>
				<path class="st5" d="M125.8,62.3c-0.6-0.5-1.5-1.3-2.1-1.8l-6.7-5.8c-0.6-0.5-1-0.9-1-0.9s-0.6,0-1.4,0l-14.1,0
					c-0.8,0-0.9,0.4-0.4,0.9l14.7,13.4c0.6,0.5,1.6,0.9,2.4,0.9l15,0c0.8,0,0.9-0.4,0.3-0.9L125.8,62.3z"/>
			</g>
			<g>
				
					<linearGradient id="SVGID_7_" gradientUnits="userSpaceOnUse" x1="60.5026" y1="7.3542" x2="129.8249" y2="97.1801" gradientTransform="matrix(1 0 0 -1 0 96.9401)">
					<stop  offset="0" style="stop-color:#7BD3F7"/>
					<stop  offset="1" style="stop-color:#0072BC"/>
				</linearGradient>
				<path class="st6" d="M112.3,51.8c0.8,0,0.9-0.4,0.3-0.9l-7.5-6.5c-0.6-0.5-1.5-1.3-2.1-1.8L95.5,36c-0.6-0.5-1.7-0.9-2.4-0.9
					l-13.1,0c-0.8,0-0.9,0.4-0.4,0.9l16.2,14.8c0.6,0.5,1.6,0.9,2.4,0.9L112.3,51.8z"/>
			</g>
			<g>
				
					<linearGradient id="SVGID_8_" gradientUnits="userSpaceOnUse" x1="72.6417" y1="-2.0206" x2="141.9698" y2="87.8128" gradientTransform="matrix(1 0 0 -1 0 96.9401)">
					<stop  offset="0" style="stop-color:#7BD3F7"/>
					<stop  offset="1" style="stop-color:#0072BC"/>
				</linearGradient>
				<path class="st7" d="M115.6,50.9c0.6,0.5,1,0.9,1,0.9l0,0c0,0,0,0,0,0c0,0,0.6,0,1.4,0l5.6,0c0.8,0,2,0,2.8,0l5.6,0
					c0.8,0,1.4,0,1.4,0c0,0,0,0,0,0s-0.5-0.4-1-0.9l-17.1-14.9c-0.6-0.5-1.7-0.9-2.4-0.9l-13.9,0c-0.8,0-1.3,0.1-1.2,0.2
					c0.1,0.1,0.7,0.6,1.3,1.1L115.6,50.9z"/>
			</g>
			<g>
				
					<linearGradient id="SVGID_9_" gradientUnits="userSpaceOnUse" x1="85.1617" y1="-11.679" x2="154.4869" y2="78.1507" gradientTransform="matrix(1 0 0 -1 0 96.9401)">
					<stop  offset="0" style="stop-color:#7BD3F7"/>
					<stop  offset="1" style="stop-color:#0072BC"/>
				</linearGradient>
				<path class="st8" d="M136.3,51.7c0,0,0.6,0,1.4,0l15,0c0.8,0,0.9-0.4,0.4-0.9l-16.2-14.8c-0.6-0.5-1.6-0.9-2.4-0.9l-15.9,0
					c-0.8,0-0.9,0.4-0.3,0.9l17.1,14.9C135.8,51.3,136.3,51.7,136.3,51.7z"/>
			</g>
		</g>
		<g>
			<g>
				
					<linearGradient id="SVGID_10_" gradientUnits="userSpaceOnUse" x1="4.052" y1="-10.9798" x2="131.9599" y2="76.896" gradientTransform="matrix(1 0 0 -1 0 96.9401)">
					<stop  offset="0" style="stop-color:#FFF200"/>
					<stop  offset="1" style="stop-color:#F7941E"/>
				</linearGradient>
				<path class="st9" d="M79.4,51.7L79.4,51.7c0,0,0.6,0,1.4,0l5.5,0c0.8,0,2,0,2.8,0l4.6,0c0.8,0,0.9-0.4,0.4-0.9l-5.5-5.1
					c-0.6-0.5-1.5-0.5-2.1,0l-5.9,5.2C79.9,51.3,79.4,51.7,79.4,51.7z"/>
			</g>
			<g>
				
					<linearGradient id="SVGID_11_" gradientUnits="userSpaceOnUse" x1="5.6165" y1="-13.2581" x2="133.5255" y2="74.6186" gradientTransform="matrix(1 0 0 -1 0 96.9401)">
					<stop  offset="0" style="stop-color:#FFF200"/>
					<stop  offset="1" style="stop-color:#F7941E"/>
				</linearGradient>
				<path class="st10" d="M78.6,53.7c-0.8,0-1.4,0-1.4,0c0,0-0.5,0.4-1,0.9l-6.7,5.8c-0.6,0.5-1.5,1.3-2.1,1.8l-6.7,5.8
					c-0.6,0.5-1,0.9-1,0.9s0.6,0,1.4,0l5.6,0c0.8,0,2,0,2.8,0l5.6,0c0.8,0,1.4,0,1.4,0l0,0c0,0,0.5-0.4,1-0.9l6.7-5.8
					c0.6-0.5,1.5-1.3,2.1-1.8l6.7-5.8c0.6-0.5,1-0.9,1-0.9s-0.6,0-1.4,0l-5.6,0c-0.8,0-2,0-2.8,0L78.6,53.7z"/>
			</g>
			<g>
				
					<linearGradient id="SVGID_12_" gradientUnits="userSpaceOnUse" x1="-2.7764" y1="-1.0475" x2="125.1362" y2="86.8315" gradientTransform="matrix(1 0 0 -1 0 96.9401)">
					<stop  offset="0" style="stop-color:#FFF200"/>
					<stop  offset="1" style="stop-color:#F7941E"/>
				</linearGradient>
				<path class="st11" d="M75.1,51.7c0.8,0,1.4,0,1.4,0s0.5-0.4,1-0.9l7.5-6.5c0.6-0.5,1-0.9,1.1-0.9s-0.5-0.4-1-0.9l-7-6.4
					c-0.6-0.5-1.1-0.9-1.2-0.9s-0.6,0.4-1.2,0.9L59.6,50.7c-0.6,0.5-1,0.9-0.9,0.9c0.1,0,0.7,0,1.5,0L75.1,51.7z"/>
			</g>
			<g>
				
					<linearGradient id="SVGID_13_" gradientUnits="userSpaceOnUse" x1="12.0447" y1="-22.6125" x2="139.9531" y2="65.2636" gradientTransform="matrix(1 0 0 -1 0 96.9401)">
					<stop  offset="0" style="stop-color:#FFF200"/>
					<stop  offset="1" style="stop-color:#F7941E"/>
				</linearGradient>
				<path class="st12" d="M98.2,54.7c-0.6-0.5-1.1-0.9-1.2-0.9c-0.1,0-0.2,0-0.2,0l0,0c0,0-0.5,0.4-1,0.9l-6.7,5.8
					c-0.6,0.5-1.5,1.3-2.1,1.8l-6.7,5.8c-0.6,0.5-0.4,0.9,0.3,0.9l14.9,0c0.8,0,1.8-0.4,2.4-0.9l6.5-5.9c0.6-0.5,0.6-1.4,0-1.9
					L98.2,54.7z"/>
			</g>
			<g>
				
					<linearGradient id="SVGID_14_" gradientUnits="userSpaceOnUse" x1="-0.8331" y1="-3.8681" x2="127.0742" y2="84.0073" gradientTransform="matrix(1 0 0 -1 0 96.9401)">
					<stop  offset="0" style="stop-color:#FFF200"/>
					<stop  offset="1" style="stop-color:#F7941E"/>
				</linearGradient>
				<path class="st13" d="M56.6,69c0,0,0.5-0.4,1-0.9l6.7-5.8c0.6-0.5,1.5-1.3,2.1-1.8l6.7-5.8c0.6-0.5,0.4-0.9-0.3-0.9l-15,0
					c-0.8,0-1.8,0.4-2.4,0.9L40.7,68c-0.6,0.5-0.4,0.9,0.4,0.9l14.1,0C56,69,56.6,69,56.6,69z"/>
			</g>
			<g>
				
					<linearGradient id="SVGID_15_" gradientUnits="userSpaceOnUse" x1="1.0299" y1="-6.5792" x2="128.9374" y2="81.2962" gradientTransform="matrix(1 0 0 -1 0 96.9401)">
					<stop  offset="0" style="stop-color:#FFF200"/>
					<stop  offset="1" style="stop-color:#F7941E"/>
				</linearGradient>
				<path class="st14" d="M53.3,71.8c0.6-0.5,1-0.9,1-0.9s-0.6,0-1.4,0l-14,0c-0.8,0-1.8,0.4-2.4,0.9L20.3,86.6
					c-0.6,0.5-0.4,0.9,0.4,0.9l13.1,0c0.8,0,1.9-0.4,2.4-0.9l7.5-6.5c0.6-0.5,1.5-1.3,2.1-1.8L53.3,71.8z"/>
			</g>
			<g>
				
					<linearGradient id="SVGID_16_" gradientUnits="userSpaceOnUse" x1="7.3615" y1="-15.7943" x2="135.2684" y2="72.0809" gradientTransform="matrix(1 0 0 -1 0 96.9401)">
					<stop  offset="0" style="stop-color:#FFF200"/>
					<stop  offset="1" style="stop-color:#F7941E"/>
				</linearGradient>
				<path class="st15" d="M74,71C74,71,74,71,74,71c0,0-0.6,0-1.4,0L67,71c-0.8,0-2,0-2.8,0l-5.6,0c-0.8,0-1.4,0-1.4,0l0,0h0
					c0,0-0.5,0.4-1,0.9L39.6,86.3c-0.6,0.5-1.1,1-1.3,1.1c-0.1,0.1,0.4,0.2,1.2,0.2l13.9,0c0.8,0,1.4,0,1.4,0s0.5-0.4,1-0.9L73,71.9
					C73.5,71.4,74,71,74,71z"/>
			</g>
			<g>
				
					<linearGradient id="SVGID_17_" gradientUnits="userSpaceOnUse" x1="13.9581" y1="-25.3978" x2="141.8658" y2="62.4778" gradientTransform="matrix(1 0 0 -1 0 96.9401)">
					<stop  offset="0" style="stop-color:#FFF200"/>
					<stop  offset="1" style="stop-color:#F7941E"/>
				</linearGradient>
				<path class="st16" d="M77,71c0,0-0.5,0.4-1,0.9L58.8,86.7c-0.6,0.5-0.4,0.9,0.3,0.9l15.9,0c0.8,0,1.8-0.4,2.4-0.9l16.2-14.8
					c0.6-0.5,0.4-0.9-0.4-0.9l-15,0C77.6,71,77,71,77,71z"/>
			</g>
		</g>
	</g>
	
		<linearGradient id="SVGID_18_" gradientUnits="userSpaceOnUse" x1="1.995" y1="48.4155" x2="601.063" y2="48.4155" gradientTransform="matrix(1 0 0 -1 0 96.9401)">
		<stop  offset="0" style="stop-color:#FFF200"/>
		<stop  offset="1" style="stop-color:#F7941E"/>
	</linearGradient>
	<path class="st17" d="M214.8,88.4c-0.1-0.2-0.1-0.5-0.2-0.7c-5.4-23.2-18.4-44.2-36.8-59.5c-19.5-16.1-44.2-25-69.5-25
		c-25.3,0-50,8.9-69.5,25C20.4,43.5,7.4,64.5,2,87.7h5.5c11.2-46.1,53-79.1,100.8-79.1c47.8,0,89.6,33,100.8,79.1
		c0.3,1.3,0.6,2.6,0.9,4l0.4,2.1h390.6v-5.4H214.8z"/>
	<g>
		
			<linearGradient id="SVGID_19_" gradientUnits="userSpaceOnUse" x1="145.0752" y1="37.5829" x2="612.6567" y2="35.5469" gradientTransform="matrix(1 0 0 -1 0 96.9401)">
			<stop  offset="0" style="stop-color:#7BD3F7"/>
			<stop  offset="0.1928" style="stop-color:#54B1E4"/>
			<stop  offset="0.4457" style="stop-color:#1293D1"/>
			<stop  offset="0.6736" style="stop-color:#007FC5"/>
			<stop  offset="0.8661" style="stop-color:#0075BE"/>
			<stop  offset="1" style="stop-color:#0072BC"/>
		</linearGradient>
		<path class="st18" d="M258.7,50.1h-8.6c0-2.4-0.3-4.1-0.8-4.9c-0.6-0.9-1.6-1.5-3.1-1.7c-0.9-0.2-2.4-0.3-4.4-0.3
			c-2.5,0-4.3,0.1-5.5,0.2c-1.2,0.2-2.1,0.5-2.8,0.9c-1.3,0.8-1.9,2.5-1.9,5c0,1.8,0.3,3.2,0.8,4.1c0.6,1.1,2.1,1.7,4.4,1.9
			c0.7,0.1,2.9,0.2,6.6,0.4c4,0.2,6.8,0.5,8.3,0.8c3.4,0.7,5.7,2.3,6.9,4.6c0.8,1.6,1.2,4.1,1.2,7.6c0,2.9-0.2,5.2-0.7,6.9
			s-1.2,3-2.2,4c-1.8,1.8-4.4,2.8-7.8,3.1c-2.2,0.2-4.9,0.3-7.9,0.3c-5.7,0-9.7-0.3-11.8-1c-3-0.9-5-2.8-6.1-5.6
			c-0.6-1.6-0.9-4.4-0.9-8.4h8.5c0,1.8,0.1,3.1,0.2,3.9c0.1,0.8,0.4,1.5,0.8,2.1c0.7,1,2,1.6,3.9,1.8c0.8,0.1,2.8,0.1,6.2,0.1
			c2.4,0,4.2-0.1,5.2-0.4c1.1-0.2,1.9-0.7,2.5-1.4c0.7-0.9,1.1-2.6,1.1-5.3c0-2.8-0.8-4.5-2.5-5.1c-0.8-0.3-3.7-0.6-8.8-0.9
			c-3.9-0.2-6.4-0.4-7.6-0.6c-3.6-0.6-6.2-2-7.6-4.1c-1.2-1.9-1.8-4.7-1.8-8.7c0-5.3,1.2-8.8,3.7-10.6c1.9-1.4,4.3-2.2,7.3-2.4
			c2.3-0.2,4.8-0.3,7.6-0.3c4.6,0,7.9,0.2,9.8,0.7c3.4,0.9,5.6,2.7,6.7,5.6c0.6,1.5,0.9,3.5,0.9,6C258.7,48.9,258.7,49.5,258.7,50.1
			z"/>
		
			<linearGradient id="SVGID_20_" gradientUnits="userSpaceOnUse" x1="145.0762" y1="37.8438" x2="612.661" y2="35.8079" gradientTransform="matrix(1 0 0 -1 0 96.9401)">
			<stop  offset="0" style="stop-color:#7BD3F7"/>
			<stop  offset="0.1928" style="stop-color:#54B1E4"/>
			<stop  offset="0.4457" style="stop-color:#1293D1"/>
			<stop  offset="0.6736" style="stop-color:#007FC5"/>
			<stop  offset="0.8661" style="stop-color:#0075BE"/>
			<stop  offset="1" style="stop-color:#0072BC"/>
		</linearGradient>
		<path class="st19" d="M330,36.7l-12.4,46.2h-13l-6.4-23.7c-0.7-2.5-1.6-6.3-2.7-11.4h-0.3l-0.7,2.9c-0.7,3.3-1.5,6.1-2.2,8.6
			l-6.6,23.7h-12.8l-12-46.2h8.9l6.7,25.4c0.5,1.9,1.2,5.3,2.2,10.1l0.7,3.4h0.3c1.5-6,2.6-10.5,3.4-13.5l7.1-25.4h10.3l6.9,25.4
			c0.7,2.8,1.6,6.1,2.5,10.1l0.8,3.4h0.3l0.7-3.4c1-4.7,1.8-8.1,2.3-10.2l6.8-25.3L330,36.7L330,36.7z"/>
		
			<linearGradient id="SVGID_21_" gradientUnits="userSpaceOnUse" x1="145.0782" y1="38.0367" x2="612.6606" y2="36.0008" gradientTransform="matrix(1 0 0 -1 0 96.9401)">
			<stop  offset="0" style="stop-color:#7BD3F7"/>
			<stop  offset="0.1928" style="stop-color:#54B1E4"/>
			<stop  offset="0.4457" style="stop-color:#1293D1"/>
			<stop  offset="0.6736" style="stop-color:#007FC5"/>
			<stop  offset="0.8661" style="stop-color:#0075BE"/>
			<stop  offset="1" style="stop-color:#0072BC"/>
		</linearGradient>
		<path class="st20" d="M334.1,82.9V36.7h22.8c4.5,0,7.6,0.5,9.3,1.5c1.8,1,3.1,2.7,3.8,4.9c0.5,1.5,0.7,3.4,0.7,5.9
			s-0.3,4.3-0.8,5.6c-0.9,2.3-2.9,3.8-6,4.5v0.2c2.1,0.3,3.6,0.8,4.7,1.6c2.2,1.5,3.2,4.6,3.2,9.4c0,5.5-1.4,9.1-4.3,11
			c-1.9,1.2-5.1,1.8-9.3,1.8L334.1,82.9L334.1,82.9z M342.9,56.1h10.7c3.2,0,5.2-0.3,6.2-0.8c1.4-0.8,2-2.6,2-5.5
			c0-1.7-0.2-2.9-0.6-3.7c-0.5-1.1-1.6-1.8-3.1-2c-0.6-0.1-1.5-0.1-2.7-0.1h-12.5V56.1z M342.9,75.5h9.6c4.3,0,7.1-0.3,8.2-0.8
			c1.1-0.5,1.7-1.4,2-2.7c0.1-0.6,0.2-1.5,0.2-2.7c0-1.9-0.2-3.3-0.6-4.2c-0.6-1.4-1.9-2.2-3.8-2.4c-0.7-0.1-2.2-0.1-4.4-0.1h-11.2
			V75.5z"/>
		
			<linearGradient id="SVGID_22_" gradientUnits="userSpaceOnUse" x1="145.0607" y1="38.3278" x2="612.6786" y2="36.2917" gradientTransform="matrix(1 0 0 -1 0 96.9401)">
			<stop  offset="0" style="stop-color:#7BD3F7"/>
			<stop  offset="0.1928" style="stop-color:#54B1E4"/>
			<stop  offset="0.4457" style="stop-color:#1293D1"/>
			<stop  offset="0.6736" style="stop-color:#007FC5"/>
			<stop  offset="0.8661" style="stop-color:#0075BE"/>
			<stop  offset="1" style="stop-color:#0072BC"/>
		</linearGradient>
		<path class="st21" d="M429.8,50.1h-8.6c0-2.4-0.3-4.1-0.8-4.9c-0.6-0.9-1.6-1.5-3.1-1.7c-0.9-0.2-2.4-0.3-4.4-0.3
			c-2.5,0-4.3,0.1-5.5,0.2c-1.2,0.2-2.1,0.5-2.8,0.9c-1.3,0.8-1.9,2.5-1.9,5c0,1.8,0.3,3.2,0.8,4.1c0.6,1.1,2.1,1.7,4.4,1.9
			c0.7,0.1,2.9,0.2,6.6,0.4c4,0.2,6.8,0.5,8.3,0.8c3.4,0.7,5.7,2.3,6.9,4.6c0.8,1.6,1.2,4.1,1.2,7.6c0,2.9-0.2,5.2-0.7,6.9
			c-0.4,1.7-1.2,3-2.2,4c-1.8,1.8-4.4,2.8-7.8,3.1c-2.2,0.2-4.9,0.3-7.9,0.3c-5.7,0-9.7-0.3-11.8-1c-3-0.9-5-2.8-6.1-5.6
			c-0.6-1.6-0.9-4.4-0.9-8.4h8.5c0,1.8,0.1,3.1,0.2,3.9c0.1,0.8,0.4,1.5,0.8,2.1c0.7,1,2,1.6,3.9,1.8c0.8,0.1,2.8,0.1,6.2,0.1
			c2.4,0,4.2-0.1,5.2-0.4c1.1-0.2,1.9-0.7,2.5-1.4c0.7-0.9,1.1-2.6,1.1-5.3c0-2.8-0.8-4.5-2.5-5.1c-0.8-0.3-3.7-0.6-8.8-0.9
			c-3.9-0.2-6.4-0.4-7.6-0.6c-3.6-0.6-6.2-2-7.6-4.1c-1.2-1.9-1.8-4.7-1.8-8.7c0-5.3,1.2-8.8,3.7-10.6c1.9-1.4,4.3-2.2,7.3-2.4
			c2.3-0.2,4.8-0.3,7.6-0.3c4.6,0,7.9,0.2,9.8,0.7c3.4,0.9,5.6,2.7,6.7,5.6c0.6,1.5,0.9,3.5,0.9,6C429.8,48.9,429.8,49.5,429.8,50.1
			z"/>
		
			<linearGradient id="SVGID_23_" gradientUnits="userSpaceOnUse" x1="145.0743" y1="38.5154" x2="612.6683" y2="36.4794" gradientTransform="matrix(1 0 0 -1 0 96.9401)">
			<stop  offset="0" style="stop-color:#7BD3F7"/>
			<stop  offset="0.1928" style="stop-color:#54B1E4"/>
			<stop  offset="0.4457" style="stop-color:#1293D1"/>
			<stop  offset="0.6736" style="stop-color:#007FC5"/>
			<stop  offset="0.8661" style="stop-color:#0075BE"/>
			<stop  offset="1" style="stop-color:#0072BC"/>
		</linearGradient>
		<path class="st22" d="M456.2,36.3c5.6,0,9.5,0.5,11.9,1.6c4.1,1.8,6.5,5.3,7.4,10.6c0.3,1.8,0.5,5.5,0.5,10.9
			c0,5.7-0.1,9.5-0.4,11.4c-0.4,2.8-1.2,5.1-2.2,6.8c-1.1,1.7-2.6,3-4.6,3.9c-2,0.9-4.5,1.5-7.6,1.7c-1.9,0.1-4,0.2-6.4,0.2
			c-3.4,0-6.1-0.2-8.1-0.5c-2-0.3-3.7-0.9-5.1-1.6c-2.7-1.4-4.5-3.6-5.5-6.6c-0.7-2-1.1-4.3-1.2-7c-0.1-1.7-0.1-3.8-0.1-6.2
			c0-6.3,0.2-10.5,0.5-12.5c0.4-2.8,1.2-5.1,2.3-6.8c1.1-1.7,2.8-3,4.9-4c1.9-0.9,4.2-1.4,7.1-1.6C451.4,36.3,453.6,36.3,456.2,36.3
			z M455.2,43.9c-3.8,0-6.4,0.3-7.7,0.8c-2.1,0.9-3.3,3.1-3.6,6.8c-0.1,1.2-0.1,4.6-0.1,10.2c0,3.1,0,5.2,0.1,6.3
			c0.2,2,0.5,3.5,1,4.6c0.5,1,1.3,1.8,2.3,2.2c1.3,0.6,4.1,0.8,8.4,0.8c3.8,0,6.3-0.3,7.6-0.8c1.9-0.9,3.1-3.2,3.5-6.9
			c0.1-1,0.2-4.2,0.2-9.5c0-3.7,0-6-0.1-7c-0.2-2-0.5-3.5-1-4.5c-0.5-1-1.3-1.8-2.4-2.3c-0.9-0.4-2.2-0.7-3.8-0.7
			C458.6,43.9,457,43.9,455.2,43.9z"/>
		
			<linearGradient id="SVGID_24_" gradientUnits="userSpaceOnUse" x1="145.088" y1="38.6491" x2="612.6629" y2="36.6131" gradientTransform="matrix(1 0 0 -1 0 96.9401)">
			<stop  offset="0" style="stop-color:#7BD3F7"/>
			<stop  offset="0.1928" style="stop-color:#54B1E4"/>
			<stop  offset="0.4457" style="stop-color:#1293D1"/>
			<stop  offset="0.6736" style="stop-color:#007FC5"/>
			<stop  offset="0.8661" style="stop-color:#0075BE"/>
			<stop  offset="1" style="stop-color:#0072BC"/>
		</linearGradient>
		<path class="st23" d="M490.8,36.7v38.4h21.6v7.8h-30.4V36.7H490.8z"/>
		
			<linearGradient id="SVGID_25_" gradientUnits="userSpaceOnUse" x1="145.0636" y1="38.8339" x2="612.6711" y2="36.7979" gradientTransform="matrix(1 0 0 -1 0 96.9401)">
			<stop  offset="0" style="stop-color:#7BD3F7"/>
			<stop  offset="0.1928" style="stop-color:#54B1E4"/>
			<stop  offset="0.4457" style="stop-color:#1293D1"/>
			<stop  offset="0.6736" style="stop-color:#007FC5"/>
			<stop  offset="0.8661" style="stop-color:#0075BE"/>
			<stop  offset="1" style="stop-color:#0072BC"/>
		</linearGradient>
		<path class="st24" d="M546.4,74h-19.9l-2.9,8.9h-9.3l15.4-46.2h13.2l15.6,46.2h-9.1L546.4,74z M544.4,67.4l-8-24l-7.9,24
			L544.4,67.4L544.4,67.4z"/>
		
			<linearGradient id="SVGID_26_" gradientUnits="userSpaceOnUse" x1="145.0788" y1="39.0309" x2="612.6674" y2="36.995" gradientTransform="matrix(1 0 0 -1 0 96.9401)">
			<stop  offset="0" style="stop-color:#7BD3F7"/>
			<stop  offset="0.1928" style="stop-color:#54B1E4"/>
			<stop  offset="0.4457" style="stop-color:#1293D1"/>
			<stop  offset="0.6736" style="stop-color:#007FC5"/>
			<stop  offset="0.8661" style="stop-color:#0075BE"/>
			<stop  offset="1" style="stop-color:#0072BC"/>
		</linearGradient>
		<path class="st25" d="M562.5,82.9V36.7h22.7c4.4,0,7.7,0.6,9.8,1.7c2.3,1.2,3.8,3.1,4.6,5.7c0.5,1.5,0.7,3.6,0.7,6.3
			c0,3.3-0.3,5.8-0.8,7.4c-0.7,2.4-2.3,4-4.6,4.9c-0.7,0.2-1.7,0.5-3,0.7v0.3c5.3,0.3,7.9,3.3,7.9,9v10.1h-9v-8.3
			c0-2.6-0.5-4.5-1.7-5.6c-1.2-1.1-2.9-1.6-5.2-1.5h-12.4v15.4L562.5,82.9L562.5,82.9z M571.3,59.9h12.4c2.7,0,4.5-0.5,5.6-1.4
			c0.8-0.7,1.4-1.7,1.6-3c0.1-0.6,0.2-1.8,0.2-3.5c0-2.4-0.1-4-0.4-4.8c-0.5-1.5-1.8-2.4-3.8-2.7c-0.7-0.1-1.5-0.2-2.6-0.2h-13
			L571.3,59.9L571.3,59.9z"/>
	</g>
</g>
</svg>
