<svg xmlns="http://www.w3.org/2000/svg" xmlns:xlink="http://www.w3.org/1999/xlink" width="592.5" height="585.518" viewBox="0 0 592.5 585.518">
    <defs>
        <clipPath id="clip-path">
            <path id="Pfad_191" data-name="Pfad 191" d="M407.51-291.139l.013-.227-.013.227m.267-8.666-.947-8.186,1.213.667c-.12,1.347-.187,4.4-.267,7.533"/>
        </clipPath>
    </defs>
    <g id="_5995356_1_" data-name="5995356 (1)" transform="translate(0 0.018)">
        <path id="Pfad_102" data-name="Pfad 102" d="M442,362.4h96.3V288H442Z" fill="#e7e8e5"/>
        <path id="Pfad_103" data-name="Pfad 103" d="M448.9,355.9h11.6V342.8H448.9v13" fill="#fff"/>
        <path id="Pfad_104" data-name="Pfad 104" d="M509,288.3V304H498V288.2h11m0,58.1v15.9H498V346.3h11" fill="#fafaf9"/>
        <path id="Pfad_105" data-name="Pfad 105" d="M466,362.9c-.1,0-.3-16.4-.3-36.5,0-20.2.2-36.5.3-36.5.2,0,.3,16.3.3,36.5,0,20.1-.1,36.5-.3,36.5" fill="#dadbd8"/>
        <path id="Pfad_106" data-name="Pfad 106" d="M402.7,490.4H568.9V362H402.7Z" fill="#e7e8e5"/>
        <path id="Pfad_107" data-name="Pfad 107" d="M414.6,479.2h20V456.5h-20v22.7" fill="#fff"/>
        <path id="Pfad_108" data-name="Pfad 108" d="M518.2,362.5v27.3H499.3V362.5h19m-.1,100.1V490H499.3V462.6h19" fill="#fafaf9"/>
        <path id="Pfad_109" data-name="Pfad 109" d="M444.2,491.2c-.3,0-.6-28.2-.6-63,0-34.7.3-63,.6-63s.5,28.3.5,63c0,34.8-.2,63-.5,63" fill="#dadbd8"/>
        <path id="Pfad_110" data-name="Pfad 110" d="M563.6,95.4l9,18,19.9,3-14.4,14,3.4,19.9-17.9-9.4-17.8,9.4,3.4-19.9-14.4-14,20-3,8.8-18M33.4,328.4,39,339.8l12.5,1.8-9,8.9,2,12.5-11.1-6-11.3,6,2.2-12.5-9.1-8.9,12.6-1.8,5.6-11.4m6.9-99,12.5,25.2,27.9,4L60.5,278.3l4.8,27.8L40.3,293,15.4,306l4.8-27.7L0,258.7l27.9-4,12.4-25.3M555.7,177l5.4,10.8,12,1.7-8.7,8.5,2,12-10.7-5.7L545,210l2-12-8.7-8.5,12-1.7,5.4-10.9M379.4.6l5.4,10.9,12,1.7-8.7,8.5,2,12L379.4,28l-10.7,5.6,2-12L362,13.2l12-1.7,5.4-11M502.3,117l3.5,7.2,7.9,1.1-5.7,5.5,1.4,7.9-7-3.7-7.1,3.7,1.3-7.9-5.7-5.5,7.9-1.1,3.5-7.2M178,476.6l6.8,14,15.3,2.1L189,503.5l2.6,15.3-13.7-7.2-13.7,7.2,2.6-15.3-11-10.8,15.3-2.2,6.8-13.9M196,462.8l2.8,5.8,6.4.9-4.6,4.5,1,6.3-5.6-3-5.7,3,1.1-6.3-4.6-4.5,6.4-1,2.8-5.7" fill="#e7e8e5"/>
        <path id="Pfad_111" data-name="Pfad 111" d="M448.9,409.7l6,12.2,13.5,2-9.8,9.5,2.3,13.4-12-6.4-12,6.4,2.2-13.4-9.7-9.5,13.4-2,6-12.2m28.8-10.8,2.8,5.8,6.4.9-4.6,4.4,1,6.4-5.6-3-5.7,3L473,410l-4.6-4.4,6.4-1,2.8-5.7" fill="#138ad5"/>
        <path id="Pfad_112" data-name="Pfad 112" d="M440,81.4l4.7-14.8a46,46,0,1,1,10.6,13.8l-15.4,1" fill="#fafaf9"/>
        <path id="Pfad_113" data-name="Pfad 113" d="M440,81.4l1-.1,2.9-.2,11.3-.8h.1a42.3,42.3,0,0,0,27,11.4l3.7.1,3.9-.2a45.9,45.9,0,0,0,40.8-53.2,43.711,43.711,0,0,0-1.2-5.2,19.849,19.849,0,0,0-.9-2.6l-1-2.5a47.13,47.13,0,0,0-9.2-13.7l-2-1.9-2-1.8-2.3-1.6-1-.8-1.2-.7-2.3-1.4L505.2,5A45.5,45.5,0,0,0,443,30.2l-.7,1.8q-.751,2.7-1.5,5.4c-.3,2.5-.7,4.8-.8,7.1a45.213,45.213,0,0,0,4.7,22v.1l-3.6,11-1,2.8-.3,1,.3-1,.9-2.8,3.4-11a44.2,44.2,0,0,1-4-29.2l.8-3.7.6-1.8.7-1.9A46,46,0,0,1,505.3,4.4a19.234,19.234,0,0,1,2.5,1.2L510.1,7l1.2.7,1.1.8,2.3,1.7,2,1.8a9.481,9.481,0,0,1,2,2,24.744,24.744,0,0,1,3.7,4.2,47.2,47.2,0,0,1,5.8,9.6l1,2.6L530,33a51.136,51.136,0,0,1,1.3,5.3A45.7,45.7,0,0,1,506,87.7a46.5,46.5,0,0,1-16,4.5l-4,.1-3.8-.1a42.3,42.3,0,0,1-27.1-11.6h.1l-11.4.6-2.9.1h-1" fill="#17282f"/>
        <path id="Pfad_114" data-name="Pfad 114" d="M459.8,44.5l7.5-6.6L480.1,51l28.5-23.8,6,7.6L478.1,64.5l-18.3-20" fill="#138ad5"/>
        <path id="Pfad_115" data-name="Pfad 115" d="M360.8,409.1l-255.6,57a11.5,11.5,0,0,1-13.8-8.7L8.4,85.1a11.5,11.5,0,0,1,8.8-13.8l255.6-57a11.5,11.5,0,0,1,13.8,8.8l83,372.3a11.5,11.5,0,0,1-8.8,13.7" fill="#dadbd8"/>
        <path id="Pfad_116" data-name="Pfad 116" d="M360.8,409.1l.9-.2,2.4-1a11.8,11.8,0,0,0,3.2-2.9,11.6,11.6,0,0,0,2.3-9l-.8-3.8-2-9-5-22.3L330,219l-21.9-98.2L295.9,66c-2-9.4-4.2-19-6.4-28.6l-3.2-14.6a11.3,11.3,0,0,0-14.6-8l-3.7.9-7.6,1.7-15.1,3.3-30.8,7-63.6,14L17.3,71.7A11.3,11.3,0,0,0,8.6,84.6l3.8,17,7.5,33.7L34.6,201,62.3,325.6l25,112.6,3,13.2,1.5,6.4a11.2,11.2,0,0,0,12,8.3,30.283,30.283,0,0,0,3.2-.6l12.4-2.8,47.1-10.4,142.2-31.6,38.6-8.6,10.1-2.2,3.4-.8-3.4.8-10,2.3-38.7,8.7-142,31.7-47.2,10.5-12.4,2.8a26.125,26.125,0,0,1-3.2.6,12.149,12.149,0,0,1-3.3,0,11.9,11.9,0,0,1-9.3-8.6l-1.4-6.4-3-13.2L61.8,325.7,34,201,19.3,135.2l-7.5-33.7-3.7-17A11.8,11.8,0,0,1,17,71L150.7,41.3,214.4,27l30.8-6.9,15.1-3.3,7.5-1.7,3.8-.8a11.9,11.9,0,0,1,11,2,11.279,11.279,0,0,1,4.1,6.3L290,37.2l6.4,28.6,12.1,54.7,21.9,98.1L362,361l5,22.3,2,9,.7,3.9a11.6,11.6,0,0,1-8,12.9l-.9.1" fill="#17282f"/>
        <path id="Pfad_117" data-name="Pfad 117" d="M118.1,453l-1.7-6,113.7-25.3a32.721,32.721,0,0,0,3.5,4.8L118.1,453M218.3,43.2l-3-15.2,8.5,14-5.5,1.2" fill="#8f9192"/>
        <path id="Pfad_118" data-name="Pfad 118" d="M21.7,87.2,102.5,450,356,393.4l-14.5-64.8L275.2,30.8,21.7,87.2" fill="#fff"/>
        <path id="Pfad_119" data-name="Pfad 119" d="M21.7,87.2,275,30.5h.2v.2l81,362.6v.3l-.3.1L102.6,450.1h-.3v-.2L21.7,87.2l81,362.6-.2-.2,253.3-56.4-.2.3L274.8,30.8l.3.2L21.7,87.2" fill="#17282f"/>
        <path id="Pfad_120" data-name="Pfad 120" d="M221.3,54.5,93,83.1l-6.4-29a8.365,8.365,0,0,1,6.3-10l111.8-25a8.5,8.5,0,0,1,10,6.5l6.5,29" fill="#17282f"/>
        <path id="Pfad_121" data-name="Pfad 121" d="M162.1,14l-32.6,7.3,10,27.1,24.6-5.5-2-28.9" fill="#17282f"/>
        <path id="Pfad_122" data-name="Pfad 122" d="M204.8,19.2Q149.065,32.374,93,44.1c0-.2,25-5.9,55.9-12.7q27.874-6.445,55.9-12.2M94.6,76.5A196,196,0,0,1,89.4,53a196,196,0,0,1,5.2,23.5M215.2,46.7c-.2,0-1.3-4.7-2.7-10.6a87,87,0,0,1-2-10.7q1.794,10.753,4.6,21.3m-5,6.3c0,.2-25.6,6-57.3,13-31.6,7.1-57.3,12.7-57.4,12.6,0-.2,25.6-6,57.3-13q28.654-6.509,57.4-12.6" fill="#33535f"/>
        <path id="Pfad_123" data-name="Pfad 123" d="M142.6,158.5c0,.2-17.2,4.1-38.6,8.9s-38.7,8.5-38.8,8.4c0-.2,17.3-4.2,38.7-9q19.291-4.42,38.7-8.3m129-14.5-101,22.8q-50.438,11.371-101,22.2,100.833-23.254,202-45m2.7,12.4c0,.2-45.1,10.4-100.9,22.8-55.8,12.5-101,22.4-101,22.3,0-.2,45.1-10.4,100.9-22.8l101-22.3m2.8,12.6s-45.1,10.3-101,22.7q-50.431,11.41-101,22.2l101-22.8c55.7-12.4,101-22.3,101-22.2m2.8,12.5-101,22.8c-55.7,12.4-101,22.3-101,22.2,0-.2,45.2-10.4,101-22.8q50.432-11.409,101-22.2m2.8,12.4c0,.2-45.2,10.4-101,22.8-55.7,12.5-101,22.4-101,22.3,0-.2,45.1-10.4,101-22.8,55.7-12.5,101-22.4,101-22.3M119.8,281.6v-.4l-.4-1.2-1-4.5c-1-3.8-2.2-9.3-3.7-15.7l.3.1-21.8,5,.2-.4v.4l.1.4.2.7q2.288,10.192,4.5,20.4l-.3-.2,15.8-3.4,4.5-1,.1.2-4.4,1L98,286.7h-.2v-.2l-2.4-10.3-1.3-5.7-.6-2.9-.3-1.5-.2-.7V265l-.1-.2v-.1c-.3.2.2-.5.1-.4l22-4.8h.2v.2l3.4,16,1,4.3.2,1.2v.4" fill="#17282f"/>
        <path id="Pfad_124" data-name="Pfad 124" d="M285.2,240.4l-152.5,34-2.9-12.8,152.6-34,2.8,12.8" fill="#dadbd8"/>
        <path id="Pfad_125" data-name="Pfad 125" d="M128.3,319.5l-.1-.4-.3-1.2q-2.355-10.089-4.7-20.192l.3.192c-6.4,1.4-13.9,3-21.9,4.9l.2-.3v.1l.1.2.1.4.2.7.3,1.5.6,3q1.8,8,3.6,16l-.3-.3,15.8-3.3,4.5-1,1.2-.2-1.1.3-4.4,1-16,3.7h-.1l-.1-.2-2.3-10.3-1.3-5.6-.6-3-.4-1.4-.1-.8-.1-.4v-.2h-.1v-.1l.2-.4,21.9-4.8h.2v.2l3.5,16,1,4.4.1,1.1.1.4" fill="#17282f"/>
        <path id="Pfad_126" data-name="Pfad 126" d="M293.7,278.3l-152.6,34-2.8-12.7,152.5-34,2.9,12.7" fill="#dadbd8"/>
        <path id="Pfad_127" data-name="Pfad 127" d="M136.8,357.4l-.2-.4-.3-1.2-1-4.4-3.7-15.8.3.2-21.8,5,.2-.4v.4l.2.3.1.8.3,1.5.7,2.9,1.3,5.6,2.2,10.4-.3-.2,15.8-3.4,4.5-1,1.3-.1-1.2.2-4.4,1-15.9,3.8h-.2v-.2l-2.4-10.3-1.2-5.7-.7-3-.3-1.4-.2-.7v-.4l-.1-.2v-.1l.2-.4,21.8-4.9h.3v.2l3.4,16,1,4.4.2,1.2v.3" fill="#17282f"/>
        <path id="Pfad_128" data-name="Pfad 128" d="M302.1,316.2l-152.5,34-2.8-12.7,152.5-34,2.8,12.7" fill="#dadbd8"/>
        <path id="Pfad_129" data-name="Pfad 129" d="M98.8,273.7l2.3-3.6,6.8,3.8,8.8-13.2,3.4,2.3-11.3,16.7-10-6m8.2,36.7,2.3-3.6,6.8,3.8,8.8-13.2,3.4,2.3L117,316.4l-10-6m8.4,37.6,2.3-3.6,6.8,3.8,8.8-13.2,3.4,2.3L125.3,354l-10-6" fill="#138ad5"/>
        <path id="Pfad_130" data-name="Pfad 130" d="M185.2,395.2q-28.682,7.132-57.7,12.8l28.8-6.7q14.434-3.357,29-6.1m28.7-6.9c0,.2-4.8,1.3-10.6,2.7a87.007,87.007,0,0,1-10.7,2c0-.1,4.7-1.3,10.5-2.6a87,87,0,0,1,10.7-2m95.1-30c.1.1-11.5,2.8-25.8,6-14.4,3.2-26,5.7-26,5.5,0-.1,11.5-2.8,25.9-6q12.941-3.023,26-5.5m-12.4,35.1.2-1.1a7,7,0,0,0-.1-3,28,28,0,0,0-1.9-4.7,14.6,14.6,0,0,1-1.8-6.3,9.471,9.471,0,0,1,3.4-7.2,9.172,9.172,0,0,1,8.8-1.7,9,9,0,0,1,4.3,2.8,4.589,4.589,0,0,1,1,2.5,2.511,2.511,0,0,1-1.6,2.3l-2.6.6-2.7.6q-2.685.537-5.4.9a40,40,0,0,1-11,0c-1.6-.1-3.4-.2-4.7.8s-2,2.6-3,4a4.722,4.722,0,0,1-1.8,1.6,3.31,3.31,0,0,1-2.4,0c-1.6-.4-2.7-1.5-4-2.2a4.842,4.842,0,0,0-1.8-.7,2.9,2.9,0,0,0-1.8.5,9.321,9.321,0,0,0-2.2,3,7,7,0,0,1-5.7,3.2,6.9,6.9,0,0,1-4.6-1.7,8.6,8.6,0,0,1-1.9-2.5l-.3-1,.4,1a7,7,0,0,0,2,2.4,6.472,6.472,0,0,0,4.4,1.5,6.675,6.675,0,0,0,5.3-3.2,9.635,9.635,0,0,1,2.4-3,2.52,2.52,0,0,1,2-.6,4.756,4.756,0,0,1,2.1.7,16.287,16.287,0,0,0,3.8,2.2,3.745,3.745,0,0,0,2.1,0,6.478,6.478,0,0,0,1.7-1.6c.9-1.2,1.5-2.9,3-4a5,5,0,0,1,2.4-1l2.7.1a43.361,43.361,0,0,0,10.8,0l5.4-1,2.7-.5a22.675,22.675,0,0,0,2.5-.6,1.712,1.712,0,0,0,1.2-1.8,3.853,3.853,0,0,0-.9-2.2,8.5,8.5,0,0,0-4-2.6,8.8,8.8,0,0,0-11.6,8.4c0,2.4,1,4.4,1.7,6.2a27,27,0,0,1,1.8,4.7,6.369,6.369,0,0,1,0,3.1,2.612,2.612,0,0,1-.3,1" fill="#17282f"/>
        <path id="Pfad_131" data-name="Pfad 131" d="M324.2,376.4l-.7.2-2,.5-7.4,1.7q-24.523,5.7-48.8,12.4l-7.4,2-2,.6-.7.1.7-.2,2-.7,7.3-2.2q27.857-8.131,56.3-14a9.433,9.433,0,0,0,2-.3l.7-.1" fill="#17282f"/>
        <path id="Pfad_132" data-name="Pfad 132" d="M219.2,103.3l-103.5,23-4.4-19.4,103.6-23,4.3,19.4" fill="#dadbd8"/>
        <path id="Pfad_133" data-name="Pfad 133" d="M312.8,399.6l33.5,176.7,30.6-56.5,58,34-61.6-172-60.5,17.8" fill="#009dff"/>
        <path id="Pfad_134" data-name="Pfad 134" d="M322.2,448.8l-.6-2.7.6,2.7m73.4-4.8-4.3-11.8h.2l4.3,11.7-.2.1" fill="#a7a9a8"/>
        <path id="Pfad_135" data-name="Pfad 135" d="M327.7,459.4a14.723,14.723,0,0,1-3.6-.4l-2-10.2-.5-2.7h.2l1.6-.6,1.5-.7,3-1.6c3.9-2.4,7.3-5.2,10.9-7.8a44.861,44.861,0,0,1,11.2-6.5,21.627,21.627,0,0,1,6.2-.9,33.9,33.9,0,0,1,6.4.7c4.2.8,8.2,2,12.3,3a46,46,0,0,0,12.3,1.4,15,15,0,0,0,4.1-1l4.3,12a29.2,29.2,0,0,1-22.1,3.1c-3.8-1-7.4-2.7-11.2-3.8a21,21,0,0,0-5.6-.8,12.489,12.489,0,0,0-5.9,1.4c-3.8,2.1-5.9,6.4-9,9.6a20.2,20.2,0,0,1-14.1,5.8" fill="#138ad5"/>
        <path id="Pfad_136" data-name="Pfad 136" d="M374.7,512.8c-.2,0-5.2-18.3-11.1-41-6-22.7-10.7-41.1-10.5-41.2.2,0,5.2,18.3,11.1,41q5.6,20.509,10.5,41.2" fill="#17282f"/>
        <path id="Pfad_137" data-name="Pfad 137" d="M317.7,408.8,284.3,585.5,253.7,529l-58,34,61.6-172,60.4,17.8" fill="#009dff"/>
        <path id="Pfad_138" data-name="Pfad 138" d="M238.9,442.4l2.3-6.4-2.3,6.4" fill="#a7a9a8"/>
        <path id="Pfad_139" data-name="Pfad 139" d="M241.3,435.6l1-3h.1l-1.1,3" fill="#8f9192"/>
        <path id="Pfad_140" data-name="Pfad 140" d="M241.2,436v0" fill="#0f191d"/>
        <path id="Pfad_141" data-name="Pfad 141" d="M307,465.2s-16.6-14.2-22.7-18.6a16.711,16.711,0,0,0-9.8-3,51,51,0,0,0-14.8,3,18.412,18.412,0,0,1-6,1,25.538,25.538,0,0,1-14.8-5.2l2.3-6.4v-.4l1.2-3h.2a21,21,0,0,0,7.4.5,95.438,95.438,0,0,0,14.3-3,52.5,52.5,0,0,1,14-2,19.468,19.468,0,0,1,6.7,1.7,36.121,36.121,0,0,1,6,3.5c4,2.6,7.5,5.6,11.3,8.2a41.8,41.8,0,0,0,8.4,4.4l-3.6,19.3" fill="#138ad5"/>
        <path id="Pfad_142" data-name="Pfad 142" d="M513.9,249.2c0,12.7-16.2,23.6-18.6,35.6-2.4,12.3,8.3,28.6,3.6,40-4.8,11.5-24,15.4-30.8,25.7-7,10.4-3.3,29.5-12,38.3-8.8,8.8-28,5.1-38.4,12-10.2,7-14.1,26-25.7,30.9-6.1,2.5-13.7.6-21.3-1.4-6.5-1.7-13-3.4-18.7-2.2-12,2.3-22.9,18.6-35.6,18.6-12.6,0-23.6-16.3-35.5-18.6-5.7-1.2-12.3.5-18.7,2.2-7.6,2-15.2,4-21.3,1.4-11.6-4.8-15.5-24-25.8-30.9s-29.5-3.2-38.3-12-5-28-12-38.3c-6.9-10.3-26-14.2-30.8-25.7-4.7-11.4,6-27.7,3.6-40-2.4-12-18.6-23-18.6-35.6,0-12.7,16.2-23.6,18.6-35.6,2.4-12.3-8.3-28.6-3.6-40,4.8-11.5,24-15.4,30.8-25.7,7-10.4,3.2-29.5,12-38.3s28-5.1,38.3-12c10.3-7,14.2-26,25.8-30.9,6-2.5,13.7-.5,21.3,1.4,6.4,1.7,13,3.4,18.7,2.2,12-2.3,22.9-18.5,35.5-18.5C329.1,51.8,340,68,352,70.3c5.7,1.2,12.2-.5,18.7-2.2,7.6-2,15.2-3.9,21.3-1.4,11.6,4.8,15.5,24,25.7,30.9,10.4,7,29.6,3.2,38.4,12,8.7,8.8,5,28,12,38.3,6.9,10.3,26,14.2,30.8,25.7,4.7,11.4-6,27.7-3.6,40,2.4,12,18.6,23,18.6,35.6" fill="#009dff"/>
        <path id="Pfad_143" data-name="Pfad 143" d="M270.2,138.5l-.3-.5-1-1.6-3-6.1a259.7,259.7,0,0,1-18.3-48.7l-.4-1.8-.1-.6.2.6q4.671,14.909,10,29.6,5.813,14.847,13,29.1m17.5-6.7-.5-1.4-1.1-4.1a215.7,215.7,0,0,1-5.5-33.2l.3,1.5.6,4.2q2.064,13.776,5,27.4l1,4.1.2,1.5m31-3c-.2,0-.7-15-1-33.4-.5-18.5-.7-33.5-.5-33.5s.7,15,1.1,33.4c.4,18.5.6,33.5.4,33.5M350,98c.2,0-2,7.6-4.8,16.7q-2.34,8.381-5.5,16.5c-.2,0,2-7.5,4.8-16.7,2.9-9.1,5.3-16.5,5.5-16.5m12.7,38.7.2-.6.6-1.8,2.4-6.4q8.137-21.081,17.4-41.7l2.8-6.2.8-1.7c.2-.4.3-.6.4-.5l-.2.6q-1.636,4.006-3.3,8L375,107.2l-8.6,20.9-2.6,6.3-.8,1.7-.3.6m16.7,8.7.8-1.4,2.3-3.5a215,215,0,0,1,21.1-26.2,4.114,4.114,0,0,1-.9,1.2q-5.694,7.055-11.4,14.1-4.289,5.533-8.4,11.2l-2.5,3.4-1,1.2m24.2,19.8s10.5-10.1,23.6-22.3c13.2-12.3,24-22,24-22,.2.2-10.4,10.2-23.5,22.5q-11.766,11.155-24,21.8m42.3,4.2-4,2.2q-4.886,2.583-9.7,5.3-6.827,3.791-14,6.9,6.923-3.615,13.7-7.5,6.824-3.842,14-7m39.2,16.4c0,.1-12.5,4.7-28,10.2q-14.036,5.129-28.3,9.6c0-.2,12.5-4.8,28-10.3,15.6-5.4,28.2-9.7,28.3-9.5M497.7,257c0,.1-13.7-1-30.5-2.6s-30.4-3-30.4-3.3c0-.1,13.7,1,30.5,2.6q15.235,1.253,30.4,3.2m-10.1,64c0,.2-12.8-5.7-28.4-13q-14.3-6.585-28.3-13.8c.1-.2,12.9,5.7,28.5,13q14.251,6.587,28.2,13.8m-41.9,60.8c-.2.1-9.4-10.5-20.6-23.8q-10.267-11.928-20-24.3c.1-.1,9.3,10.5,20.6,23.8q10.267,11.928,20,24.3m-35.1,8.1-1-1.5c-.8-1-1.7-2.5-2.9-4.3A366.407,366.407,0,0,1,387,348.7l1,1.6,2.4,4.5q8.137,14.651,16.8,29l2.6,4.3c.6,1,.9,1.6.8,1.7m-21.7,30.6-.4-.6-.8-1.6a249.2,249.2,0,0,1-20-54.8l-.4-1.8v-.7l.1.7.6,1.7,1.8,6.6a323.2,323.2,0,0,0,15.3,42l2.8,6.2.8,1.6.2.7M344.8,399l-.6-4.7a196.2,196.2,0,0,0-3.7-22.2l-1-4.6.5,1.2,1,3.2a114.4,114.4,0,0,1,3.8,27M316,437.3l-.1-.7q-.025-4.6,0-9.2.424-27.349,3-54.6l.3-2,.1-.7v2.7l-.5,7.2-1.3,23.7q-.7,11.841-1,23.7l-.4,7.2v2l-.1.7m-23.5-67.2a131.8,131.8,0,0,1-5.3,22.7l.7-3.3,1.9-8,1.8-8c.5-2.1.8-3.4,1-3.4m-42.5-20.3c.2,0-2.4,3.8-5.8,8.2a70,70,0,0,1-6.4,7.9,106.5,106.5,0,0,1,12.2-16.1m-22.2-15c.1.2-8.1,9.9-18.5,21.7q-9.239,10.88-19,21.3c-.1-.2,8.1-9.9,18.5-21.7q9.239-10.881,19-21.3m-11.1-16.5a256.515,256.515,0,0,1-21,17.3c-.2-.1,4.4-4.1,10.2-9a108.993,108.993,0,0,1,10.8-8.3m-13-25c0,.2-11.5,6-25.8,12.8-14.3,7-26,12.4-26,12.2-.1-.2,11.4-5.9,25.7-12.8s26-12.3,26-12.2m-5.2-12.4-1.2.4-3.3.6a138.2,138.2,0,0,1-26.9,2.1l4.6-.3q11.141-.713,22.2-2.3l4.6-.5m-4.2-28.7H192l-6.4-.4a397.579,397.579,0,0,0-41.8.2l-6.4.4h-2.3a13.143,13.143,0,0,0,2.3-.3l6.3-.6a281,281,0,0,1,50.6.7M197,227c-.1.1-8.8-2.1-19.4-5q-9.6-2.569-19-5.8c0-.2,8.6,2,19.2,5s19.2,5.6,19.1,5.7m5.6-21.1-.6-.2-1.8-.5-6.4-2.2a211.6,211.6,0,0,1-47.1-24.6q3.649,2.253,7.3,4.5a262.9,262.9,0,0,0,46.3,22l1.7.7.6.3M215,184.5c0,.2-6.8-4.4-15-10.2q-7.552-5.067-14.7-10.7c.1-.2,6.9,4.4,15,10.2,8.3,5.7,14.9,10.6,14.7,10.7m-26.5-64.8.5.4,1.4,1.1,4.9,4.4L211.4,140l16.3,14.3,4.9,4.4,1.3,1.2.4.5-.5-.4-1.4-1-5-4.3q-19.062-16.126-37.2-33.3l-1.3-1.2-.4-.5m41.6,1.3,1,.8,2.2,2.7a158.6,158.6,0,0,1,15.3,23.4l-2.7-4q-6.181-9.714-13-19l-2.8-4" fill="#17282f"/>
        <path id="Pfad_144" data-name="Pfad 144" d="M234.5,160.1,205,134.3l-9.7-8.7-5-4.4-1.3-1.1-.5-.4.4.5-11.8-10.4c3.7-3.5,8.8-5,13.8-5.9s10.2-1.3,15.2-2.4a37,37,0,0,0,7.3-2.5l2.4-1.5,18.2,28q-1.9-2.346-3.9-4.6l2.8,4q6.816,9.28,13,19l2.7,4v-.2l.5,1a122,122,0,0,0-14.6,11.4" fill="#138ad5"/>
        <path id="Pfad_145" data-name="Pfad 145" d="M205,134.3l-16-14.1-.5-.5.5.4,1.4,1.1,4.9,4.4,9.7,8.7M248.6,148l-2.7-4q-6.175-9.816-13-19.2a23.5,23.5,0,0,1-2.8-3.9l1,1q1.5,1.756,2.9,3.6l14.5,22.2v.2" fill="#111d23"/>
        <path id="Pfad_146" data-name="Pfad 146" d="M269.8,137.5l-.6-1.3v-.1L249.7,87.3l-1.8-5.8q-.4-1.149-.8-2.3v.6l.5,1.8.4,1.7-6.5-16.4,1.3-.5A20.4,20.4,0,0,1,250,66c4.8.4,9.4,1.8,14.1,3a53,53,0,0,0,14.2,2,21,21,0,0,0,3.5-.6l6,60.9-.2-1-1-4.1q-2.935-13.617-5-27.4l-.6-4.2-.3-1.5v1.5l.5,4.2a215.4,215.4,0,0,0,6.5,32.8,120,120,0,0,0-17.9,5.9" fill="#138ad5"/>
        <path id="Pfad_147" data-name="Pfad 147" d="M269.7,137.5l-.6-1.4.1.1.6,1.3M249.7,87.3l-1.7-4-.4-1.7-.4-1.8-.1-.6.2.6.6,1.7,1.8,5.8m38,44.3-.4-1.2-1.1-4.1a215.7,215.7,0,0,1-5.5-33.2l.3,1.5.6,4.2q2.064,13.776,5,27.4l1,4.1.2,1v.3h-.1" fill="#111d23"/>
        <path id="Pfad_148" data-name="Pfad 148" d="M335.8,129.6h-1.2a101.814,101.814,0,0,0-15.7-1.4q-.141-33.163-1.6-66.3v2.6l-.4-12.4a21.825,21.825,0,0,1,10.7,3.7,117.416,117.416,0,0,1,10.8,7.7A46,46,0,0,0,349.8,70a10.879,10.879,0,0,0,3,.7l-17,58.9" fill="#138ad5"/>
        <path id="Pfad_149" data-name="Pfad 149" d="M318.9,128.2h-.1l-1.6-63.7.1-2.6c.2,0,.7,15,1.1,33.4.4,16.4.6,30,.5,32.9" fill="#0f191d"/>
        <path id="Pfad_150" data-name="Pfad 150" d="M378,144.6l-4.4-2a96.305,96.305,0,0,0-10.2-5l-.7-.3,4.2-10.6,8.1-19.5,8.8-20.8q1.752-4.3,3.5-8.6l-.4.5-.8,1.7-2.8,6.2-3.6,8.5,11-28a16.671,16.671,0,0,1,7,4.4,53,53,0,0,1,7,9.6c2,3.3,3.9,6.7,6,10a29,29,0,0,0,6,6.3L378,144.6" fill="#138ad5"/>
        <path id="Pfad_151" data-name="Pfad 151" d="M367,126.7l12.7-32,3.6-8.5,2.8-6.2.8-1.7.4-.5-.2.6q-1.636,4.006-3.3,8L375,107.2l-8,19.5" fill="#111d23"/>
        <path id="Pfad_152" data-name="Pfad 152" d="M416.4,181c-2.4-3.5-4.9-6.8-7.5-10l-4.3-5.8,4.8-5q21.159-19.322,41.8-39.2-17.8,16.04-35.3,32.4l41-42.6,1.4,2a33.556,33.556,0,0,1,3.3,9.5c1.3,6.5,1.6,13,3.3,19a25.555,25.555,0,0,0,2.4,5.6l-51,34" fill="#138ad5"/>
        <path id="Pfad_153" data-name="Pfad 153" d="M409.4,160.2l6.5-6.8q17.5-16.359,35.3-32.4-20.64,19.876-41.8,39.2" fill="#111d23"/>
        <path id="Pfad_154" data-name="Pfad 154" d="M497.8,194.6l1-4,.4-2-1.4,6" fill="#c3c5c2"/>
        <path id="Pfad_155" data-name="Pfad 155" d="M433.8,219.4a108.845,108.845,0,0,0-4.5-14c2.3-.7,14-4.6,27.9-9.5q14.118-4.823,28-10.3c-.6,0-13,4.3-28.3,9.6l-27.6,10-1.1-2.5-.4-1.4,70.3-28.9a14.657,14.657,0,0,1,1.4,4c1,4.8,0,9.7-1,14-1,4.5-2.3,8.7-3,12.8a29.5,29.5,0,0,0-.4,9.5l-61.3,6.7" fill="#138ad5"/>
        <path id="Pfad_156" data-name="Pfad 156" d="M429.3,205.4v-.1c2.2-1,13.7-5.2,27.6-10q14.045-5.1,28.3-9.6-27.669,10.629-55.9,19.7" fill="#111d23"/>
        <path id="Pfad_157" data-name="Pfad 157" d="M501,273.6l6-8.4c-2,3-4.1,5.7-6,8.4m12-19,.5-2v-.1l.3-1.4v-1.9h.2a17.677,17.677,0,0,1-1,5.4" fill="#c3c5c2"/>
        <path id="Pfad_158" data-name="Pfad 158" d="M495,286l-58.6-17,.2-4.9a97.058,97.058,0,0,0,.8-12.1l3.8-.1q28.2,3.037,56.5,5.1-26.612-3.021-53.3-5.3l69.5-2.4v.8c-.2.6-.1,1.5-.4,2.5a30.625,30.625,0,0,1-4,9c-2.3,3.6-5.8,7.8-9.4,13a31.3,31.3,0,0,0-4.6,9.1,18.007,18.007,0,0,0-.5,2.4m18.5-33.4v0m.3-1.5v-1q-.008.5,0,1" fill="#138ad5"/>
        <path id="Pfad_159" data-name="Pfad 159" d="M497.5,257q-28.142-2.118-56.2-5.2l3.1-.2q26.536,2.333,53,5.4" fill="#111d23"/>
        <path id="Pfad_160" data-name="Pfad 160" d="M470,348l-48.2-38.2,4.2-9.1.4-1,2.6-5.3,11,4.3q23.667,11.384,47.6,22.2-19.6-10.217-39.8-19.2l51.8,20.2v.2a16.409,16.409,0,0,1-3.4,6.7,31,31,0,0,1-5.9,5.3c-4.4,3.1-9.5,5.6-14.4,9a38.273,38.273,0,0,0-6,4.8" fill="#138ad5"/>
        <path id="Pfad_161" data-name="Pfad 161" d="M487.6,320.9q-23.881-10.816-47.5-22.2l7.7,3q19.979,9.436,39.8,19.2" fill="#111d23"/>
        <path id="Pfad_162" data-name="Pfad 162" d="M417,401l-7.6-12.9.1.2,1.1,1.5a7.928,7.928,0,0,0-.8-1.7l-2.6-4.3q-8.654-14.351-16.8-29l-2.5-4.5a7.353,7.353,0,0,0-1-1.6,154.818,154.818,0,0,0,17.2-13.2l.2-3,.5-.6,48.7,58.7a24.867,24.867,0,0,1-2.8,1.5,42,42,0,0,1-10.2,2.7c-3.5.6-7.2,1-10.8,1.7A34.3,34.3,0,0,0,417,401m-11.9-67.5c-.1.1,8.8,11,20,24.3q10.043,12.12,20.6,23.8c.1-.1-8.8-11-20-24.3q-10.043-12.12-20.6-23.8m-14.3,23-4.4-7.5.6-.4.7,1.7q1.44,3.079,3,6.1" fill="#138ad5"/>
        <path id="Pfad_163" data-name="Pfad 163" d="M445.7,381.7c-.3,0-9.4-10.6-20.6-23.8q-10.267-11.928-20-24.3c.2,0,9.4,10.6,20.6,23.8q10.267,11.928,20,24.3m-35.1,8.1-1-1.5-.2-.2Q399.738,371.528,390,355q-1.564-3.12-3-6.3l1,1.6,2.4,4.5q8.137,14.651,16.8,29l2.6,4.3c.6,1,.9,1.6.8,1.7" fill="#111d23"/>
        <path id="Pfad_164" data-name="Pfad 164" d="M385.4,432.6a45.809,45.809,0,0,1-10.4-1.5c-4-1-8.1-2.2-12.3-3a34,34,0,0,0-6.5-.7,21,21,0,0,0-6.4,1h-.3l-10.5-60h.6l.9,3.7a195.193,195.193,0,0,1,3.7,22.2l.6,4.6v-1.3l-.1-3.4a114.1,114.1,0,0,0-4.8-26,115.192,115.192,0,0,0,27.9-8.8l28.4,69.3a15.9,15.9,0,0,1-10.8,3.9m-18.2-71.7.1.7.4,1.8,1.6,6.6a249.306,249.306,0,0,0,18.4,48.2l.8,1.6.4.6-.2-.7-.8-1.6-2.8-6.2a323.4,323.4,0,0,1-15.3-42l-1.8-6.6-.6-1.7c0-.4-.1-.7-.2-.7" fill="#138ad5"/>
        <path id="Pfad_165" data-name="Pfad 165" d="M388.9,420.4l-.4-.6-.8-1.6a249.2,249.2,0,0,1-20-54.8l-.4-1.8v-.7l.1.7.6,1.7,1.8,6.6a323.2,323.2,0,0,0,15.3,42l2.8,6.2.8,1.6.2.7M344.8,399l-.6-4.7a196.2,196.2,0,0,0-3.7-22.2l-.9-3.8h.3l.1.4,1,3.2a114.4,114.4,0,0,1,3.8,27" fill="#111d23"/>
        <path id="Pfad_166" data-name="Pfad 166" d="M315.5,446.3H315l-.8-.1-.8-.2-1.7-.4c-1-.4-2.1-.7-3.1-1.2-2-1-4-2.2-6-3.4-3.7-2.6-7.3-5.6-11.2-8.2a42,42,0,0,0-6.1-3.6,22.13,22.13,0,0,0-5-1.5l8-37.7v-.4a132.806,132.806,0,0,0,4.2-19.5l-.2.6.6-2.8a121.1,121.1,0,0,0,26,2.4l-.2,5q-1.393,14.169-2,28.4-.756,16.789-.7,33.6l-.5,9m1-19.9c.2-5.7.5-13.3,1-21.6l-1,21.6" fill="#138ad5"/>
        <path id="Pfad_167" data-name="Pfad 167" d="M316,437.3l-.1-.7q-.025-4.6,0-9.2.425-26.044,2.8-52l-1.3,29.4-1,21.6-.4,10.9M288.2,390l4-19.3.3-.6a131.8,131.8,0,0,1-4.2,19.5v.4" fill="#111d23"/>
        <path id="Pfad_168" data-name="Pfad 168" d="M242.6,432a17.233,17.233,0,0,1-6-3.5,47.5,47.5,0,0,1-8.9-11.8c-2.5-4.2-5-8.7-8.3-12.5a21,21,0,0,0-6-4.8h-.2q12.273-16.809,24.7-33.5c.3,0,3-3.5,6.4-7.9,2.5-3.2,4.6-6.1,5.4-7.4a122.2,122.2,0,0,0,28.7,13.6l-35.8,67.7m5.8-80.2,1-1.4v.1l-1,1.3" fill="#138ad5"/>
        <path id="Pfad_169" data-name="Pfad 169" d="M238,365.9c-.1,0-.1,0,0-.1q5.744-7.7,11.5-15.4l.2.2a153.306,153.306,0,0,1-11.8,15.3" fill="#111d23"/>
        <path id="Pfad_170" data-name="Pfad 170" d="M179.7,390.7a13.719,13.719,0,0,1-2.7-2.2,18.715,18.715,0,0,1-4-6.5,63.327,63.327,0,0,1-1.9-7.5c-.9-5.2-1.3-10.5-2.6-15.6a27,27,0,0,0-4.1-9.5l50.3-34.6A123.456,123.456,0,0,0,230.1,334l-50.4,56.7m48.2-55.9c-.3,0-8.7,9.5-19,21.3q-9.513,10.623-18.5,21.7c.3,0,8.7-9.5,19-21.3q9.513-10.623,18.5-21.7m-11.1-16.5c-.3,0-5,3.7-10.8,8.4a133.4,133.4,0,0,0-10.2,9c.3,0,5-3.8,10.7-8.5a133.494,133.494,0,0,0,10.3-9" fill="#138ad5"/>
        <path id="Pfad_171" data-name="Pfad 171" d="M190.4,377.8c-.1-.2,8.1-9.9,18.5-21.7q9.245-10.875,19-21.3c.1.2-8.1,9.9-18.5,21.7q-9.245,10.875-19,21.3m5.4-42.2c-.2-.1,4.4-4.1,10.2-9q5.2-4.4,10.8-8.3c0,.1-4.5,4.1-10.3,9q-5.152,4.4-10.7,8.3" fill="#111d23"/>
        <path id="Pfad_172" data-name="Pfad 172" d="M135.3,326.5a15.6,15.6,0,0,1-2.2-8.2,35.763,35.763,0,0,1,1-8c1.1-5.4,2.8-10.6,3.7-16.1a28.272,28.272,0,0,0,.3-7.7l60.5-9.7a120.5,120.5,0,0,0,5,16.1l-24,11.7-1.9,1q-21.219,10.453-42.4,21m63.1-45.7-4.5.5q-11.051,1.582-22.2,2.3l-4.6.3,1.3.2q1.7.06,3.4,0a138.1,138.1,0,0,0,26.6-3.3" fill="#138ad5"/>
        <path id="Pfad_173" data-name="Pfad 173" d="M152.3,318q12.595-6.462,25.4-12.5l1.8-.9-27.2,13.5M170,284.2q-1.453-.057-2.9-.2l4.6-.3q11.141-.713,22.2-2.3l4.5-.5h.1l-1.2.4-3.3.6a138.2,138.2,0,0,1-24,2.3" fill="#111d23"/>
        <path id="Pfad_174" data-name="Pfad 174" d="M195.4,251.7H191a210.494,210.494,0,0,0-24.8-1h-1.4q-11.666.016-23.3,1H119.7a10.679,10.679,0,0,1-.3-2.5,20.1,20.1,0,0,1,2-8,39.2,39.2,0,0,1,4.4-7c3.2-4.6,6.8-8.9,9.6-13.8a22.5,22.5,0,0,0,2.8-8.5l59,17a122,122,0,0,0-1.7,22.8m-11,0H149.3q17.541-.784,35.1,0" fill="#138ad5"/>
        <path id="Pfad_175" data-name="Pfad 175" d="M190.9,251.7h-6.6q-17.492-.762-35,0h-8q11.676-.965,23.4-1h1.4q12.416-.051,24.8,1" fill="#111d23"/>
        <path id="Pfad_176" data-name="Pfad 176" d="M201.9,210q-14.389-7.97-28.8-15.9a211.6,211.6,0,0,0,28.8,11.4l-1.7-.6q-13.632-5.139-26.8-11.4A262.9,262.9,0,0,1,146,178l.5.4,1.5,1q5.387,3.8,11.1,7.1l-24.5-13.3.4-.8a21.252,21.252,0,0,1,5.2-6,51.73,51.73,0,0,1,6.6-4.6c4.6-2.8,9.3-5.3,13.6-8.7a21.6,21.6,0,0,0,5.5-6.4l48.9,36.8-.3.5q-14.16-10.816-29.2-20.4c-.1.1,6.5,5,14.7,10.7,6.7,4.8,12.4,8.7,14.4,9.9a114.709,114.709,0,0,0-12.5,25.9" fill="#138ad5"/>
        <path id="Pfad_177" data-name="Pfad 177" d="M202.5,205.8l-.6-.2-1.8-.5-6.4-2.2a211.6,211.6,0,0,1-47.7-25l.6.4q3.651,2.253,7.3,4.5a262.9,262.9,0,0,0,46.3,22l1.7.7.6.3m11.9-21.6q-14.929-9.682-29-20.6,15.027,9.575,29.2,20.4c-.2,0-.2.1-.2.2" fill="#111d23"/>
        <path id="Pfad_178" data-name="Pfad 178" d="M513.9,249.2v-.8c-.2-.6-.1-1.4-.4-2.5a30.625,30.625,0,0,0-4-9c-2.3-3.6-5.8-7.8-9.4-13a31.3,31.3,0,0,1-4.6-9.1,26,26,0,0,1,0-11.6c.7-4,2-8.3,3-12.7s2-9.3,1-14.2a15,15,0,0,0-3.3-6.7,31,31,0,0,0-5.9-5.3c-4.4-3.1-9.5-5.6-14.4-9a32.9,32.9,0,0,1-6.8-5.7,22,22,0,0,1-4.2-8.3c-1.7-6-2-12.5-3.3-19a32,32,0,0,0-3.3-9.4,16,16,0,0,0-7.6-6.6,42,42,0,0,0-10.2-2.7c-3.6-.6-7.2-1-10.8-1.7A34,34,0,0,1,419,98.6a25,25,0,0,1-8.2-8c-2.2-3.2-4.1-6.6-6.2-10a53,53,0,0,0-6.9-9.5,16.4,16.4,0,0,0-10.5-5.2A42.384,42.384,0,0,0,375,67.3c-4,1-8.1,2.2-12.3,3a26,26,0,0,1-12.9-.3c-4.2-1.4-7.8-4-11.4-6.5-3.5-2.6-7-5.4-10.8-7.7A20.7,20.7,0,0,0,315,52.2h-.8l-.8.2-1.7.4c-1,.4-2.1.7-3.1,1.2a62.1,62.1,0,0,0-6,3.5c-3.7,2.5-7.3,5.5-11.2,8.2a42,42,0,0,1-6.1,3.5,21.272,21.272,0,0,1-7,1.8c-4.8.2-9.6-.9-14.2-2-4.7-1.2-9.3-2.6-14.1-3a22,22,0,0,0-7.2.4,17.831,17.831,0,0,0-6.3,3.5c-3.6,3.2-6.2,7.5-8.8,11.8-2.5,4.2-5,8.7-8.3,12.5a21,21,0,0,1-6,4.8,34.3,34.3,0,0,1-7.3,2.5c-5,1-10.1,1.5-15.2,2.4-5,1-10.2,2.4-13.9,6a20.333,20.333,0,0,0-4,6.5,63.328,63.328,0,0,0-1.9,7.5c-.9,5.2-1.3,10.4-2.6,15.6a21.6,21.6,0,0,1-8.2,13.6c-4.2,3.4-9,5.9-13.5,8.7a61.5,61.5,0,0,0-6.6,4.6,21.252,21.252,0,0,0-5.2,6,15.694,15.694,0,0,0-1.9,7.7,35.763,35.763,0,0,0,1,8c1.1,5.4,2.8,10.6,3.7,16a22.5,22.5,0,0,1-2.5,16.2c-2.8,5-6.4,9.3-9.6,13.8a45.2,45.2,0,0,0-4.3,7.1,18.557,18.557,0,0,0-2,8,19.29,19.29,0,0,0,2,8,41.88,41.88,0,0,0,4.2,7c3.2,4.6,6.9,8.9,9.7,13.7a22.7,22.7,0,0,1,2.5,16.3c-.9,5.5-2.6,10.7-3.7,16a37.266,37.266,0,0,0-1,8A15.807,15.807,0,0,0,135,326a19.439,19.439,0,0,0,5.1,6,71.177,71.177,0,0,0,6.6,4.6c4.6,2.8,9.4,5.3,13.6,8.7a21.7,21.7,0,0,1,8.2,13.6c1.3,5.1,1.7,10.4,2.6,15.6a39.56,39.56,0,0,0,2,7.5,16.869,16.869,0,0,0,4,6.5,26,26,0,0,0,13.8,6c5,.9,10.2,1.3,15.2,2.4a37,37,0,0,1,7.3,2.5,21,21,0,0,1,6,4.8c3.4,3.8,5.8,8.3,8.3,12.5,2.6,4.3,5.2,8.6,8.8,11.8a16.4,16.4,0,0,0,6.3,3.5,24.735,24.735,0,0,0,7.2.4c4.8-.4,9.4-1.8,14.1-3,4.7-1.1,9.4-2.2,14.2-2a21.272,21.272,0,0,1,7,1.8,42,42,0,0,1,6.1,3.6c3.9,2.6,7.5,5.6,11.3,8.2a43.025,43.025,0,0,0,5.9,3.4,28.5,28.5,0,0,0,3.1,1.2l1.7.4.8.2h.8c4.5.5,8.8-1.3,12.6-3.6a117.411,117.411,0,0,0,10.8-7.7,44,44,0,0,1,11.4-6.5,26,26,0,0,1,12.9-.3c4.2.8,8.3,2,12.3,3a39.159,39.159,0,0,0,12.2,1.4,16.288,16.288,0,0,0,10.5-5.2,47.245,47.245,0,0,0,7-9.6c2-3.3,3.9-6.7,6-10a29.727,29.727,0,0,1,8.3-7.9,34,34,0,0,1,10.7-3.3c3.6-.7,7.3-1.1,10.8-1.7a42,42,0,0,0,10.2-2.7,16,16,0,0,0,7.6-6.6,32,32,0,0,0,3.3-9.4c1.3-6.5,1.6-13,3.3-19a24.092,24.092,0,0,1,4.2-8.3,33,33,0,0,1,6.8-5.8c4.9-3.3,10-5.8,14.4-9a31,31,0,0,0,6-5.2,16,16,0,0,0,3.2-6.7,20.038,20.038,0,0,0,.2-7.3,49.622,49.622,0,0,0-1.2-6.9c-1-4.4-2.3-8.6-3-12.7a25.24,25.24,0,0,1,0-11.6,31.121,31.121,0,0,1,4.6-9.1c3.6-5.2,7-9.4,9.4-13a30.625,30.625,0,0,0,4-9,13.811,13.811,0,0,0,.3-2.5v0a8.355,8.355,0,0,1-.3,2.5,25.279,25.279,0,0,1-4,9c-2.2,3.7-5.7,7.9-9.2,13a31.2,31.2,0,0,0-4.6,9.2c-1,3.5-.7,7.4,0,11.5.8,4,2,8.2,3,12.6a54.189,54.189,0,0,1,1.4,7,25.631,25.631,0,0,1-.2,7.3,17.556,17.556,0,0,1-3.4,7,34,34,0,0,1-6,5.3c-4.4,3.1-9.5,5.7-14.4,9a32.6,32.6,0,0,0-6.7,5.7,20.128,20.128,0,0,0-4,8c-1.7,6-2.1,12.6-3.4,19a32.134,32.134,0,0,1-3.3,9.6,17.187,17.187,0,0,1-7.8,6.8,42.3,42.3,0,0,1-10.3,2.8l-10.8,1.6c-3.6.7-7.3,1.5-10.5,3.4a24.7,24.7,0,0,0-8,7.8,110.071,110.071,0,0,0-6.2,9.9,50.848,50.848,0,0,1-7,9.7,17,17,0,0,1-10.9,5.4,39.536,39.536,0,0,1-12.3-1.5c-4-1-8.1-2.1-12.3-3-4.1-.7-8.5-1-12.6.3-4,1.4-7.7,4-11.2,6.5-3.6,2.6-7,5.4-10.9,7.8l-3,1.6-1.5.7-1.6.5a15.739,15.739,0,0,1-6.8.8h-.9l-.8-.2-1.7-.4a22.565,22.565,0,0,1-3.3-1.3,60.775,60.775,0,0,1-6-3.4c-3.8-2.6-7.4-5.6-11.2-8.2a46.593,46.593,0,0,0-6-3.5,20.61,20.61,0,0,0-6.8-1.7c-4.7-.3-9.4.8-14,2a98.135,98.135,0,0,1-14.3,3,26.385,26.385,0,0,1-7.4-.5,16.684,16.684,0,0,1-6.5-3.6c-3.8-3.3-6.4-7.7-9-12a91.715,91.715,0,0,0-8.2-12.4,20.3,20.3,0,0,0-5.8-4.6,33.7,33.7,0,0,0-7.2-2.4c-5-1-10-1.6-15.1-2.5a40.541,40.541,0,0,1-7.6-2,23,23,0,0,1-6.7-4,21.382,21.382,0,0,1-4-6.8,41.536,41.536,0,0,1-2-7.7c-1-5.2-1.4-10.5-2.6-15.6a28.233,28.233,0,0,0-2.8-7.3,21,21,0,0,0-5.2-5.9c-4.1-3.3-9-5.8-13.5-8.6a62,62,0,0,1-6.7-4.6,23,23,0,0,1-5.3-6.3,15.849,15.849,0,0,1-2-8,44.834,44.834,0,0,1,1-8.2c1.1-5.4,2.8-10.6,3.7-16a22,22,0,0,0-2.5-15.8c-2.7-4.8-6.3-9-9.5-13.7a45.4,45.4,0,0,1-4.4-7.2,20,20,0,0,1-2-8.2,19.513,19.513,0,0,1,2-8.3,47.774,47.774,0,0,1,4.4-7.2c3.2-4.6,6.8-8.8,9.6-13.6a21.8,21.8,0,0,0,2.4-15.8c-.9-5.4-2.6-10.7-3.7-16a38.3,38.3,0,0,1-1-8.2,15.849,15.849,0,0,1,2-8,21.457,21.457,0,0,1,5.3-6.3,61.139,61.139,0,0,1,6.7-4.6c4.6-2.8,9.4-5.3,13.5-8.6a20.9,20.9,0,0,0,8-13.2c1.2-5.1,1.6-10.4,2.6-15.6a41.536,41.536,0,0,1,2-7.7,20,20,0,0,1,4-6.7,19,19,0,0,1,6.8-4.1,39.56,39.56,0,0,1,7.5-2c5-1,10.2-1.4,15.1-2.5a33.832,33.832,0,0,0,7.2-2.4,21.422,21.422,0,0,0,5.8-4.6c3.3-3.8,5.7-8.2,8.3-12.5,2.5-4.2,5.1-8.6,9-11.9a15.637,15.637,0,0,1,6.4-3.6,23.312,23.312,0,0,1,7.4-.5c5,.5,9.6,1.9,14.3,3,4.6,1.2,9.3,2.3,14,2a17.455,17.455,0,0,0,6.7-1.7,36.121,36.121,0,0,0,6-3.5c4-2.6,7.5-5.5,11.3-8.2a51.145,51.145,0,0,1,6-3.4,18.869,18.869,0,0,1,3.3-1.3l1.6-.4.9-.2h.9a15.74,15.74,0,0,1,6.8.8l1.6.5,1.5.7,3,1.7A118.876,118.876,0,0,1,338.8,63,44.861,44.861,0,0,0,350,69.5c4,1.3,8.4,1,12.6.2,4.1-.8,8.2-2,12.3-3,4-.9,8.2-1.7,12.3-1.3a16.9,16.9,0,0,1,10.9,5.3,54.191,54.191,0,0,1,7,9.7c2,3.4,4,6.8,6.1,10,2.2,3,4.8,6,8,7.7,3.3,1.9,7,2.7,10.6,3.4l10.8,1.6a41.409,41.409,0,0,1,10.3,2.8,16.626,16.626,0,0,1,7.8,6.8,33.556,33.556,0,0,1,3.3,9.5c1.3,6.5,1.7,13,3.3,19a24.751,24.751,0,0,0,4.1,8.1,36.719,36.719,0,0,0,6.7,5.8c4.9,3.2,10,5.8,14.4,9a27.51,27.51,0,0,1,6,5.3,16.557,16.557,0,0,1,3.4,6.9,25.632,25.632,0,0,1,.2,7.3c-.3,2.4-.8,4.7-1.3,7-1,4.4-2.3,8.6-3,12.6a24.8,24.8,0,0,0,0,11.5,28.693,28.693,0,0,0,4.5,9.1c3.5,5.2,7,9.4,9.3,13a31.786,31.786,0,0,1,4,9,13.8,13.8,0,0,1,.2,2.6v.8" fill="#17282f"/>
        <path id="Pfad_179" data-name="Pfad 179" d="M279.4,432.4c.2,0-4.7,20-11,44.6q-5.523,22.271-11.6,44.4c-.2,0,4.7-20,11-44.6,6.2-24.5,11.4-44.4,11.6-44.4" fill="#17282f"/>
        <path id="Pfad_180" data-name="Pfad 180" d="M437.5,249.2a121,121,0,1,1-121-121,121,121,0,0,1,121,121" fill="#fff"/>
        <path id="Pfad_181" data-name="Pfad 181" d="M242,207.3a75.6,75.6,0,0,0-11.8,32c-.8,13.9,1.2,91.2,1.2,91.2l.3,5.1c21.8,25.5,101,63.4,172.4-.1l4-47.6L396.3,187.2l-40.9-10-9.6-15.5-63.9,15-5.7,13.4-34.3,17.2" fill="#33535f"/>
        <path id="Pfad_182" data-name="Pfad 182" d="M341.4,121.2c2.8-10.5,5.6-21,6.5-31.8,1-10.8.1-22-4.2-31.9-.6-1.5-6-11.5-7.7-11.3-1.1.2,2.4,9.7,1.8,10.7-5.1,10-6,21.7-4.6,32.8a150.608,150.608,0,0,0,8.2,31.5" fill="#17282f"/>
        <path id="Pfad_183" data-name="Pfad 183" d="M340.3,79.9c-.5-27.2-16.7-49.5-43.9-48.3l-2.5.3a48.6,48.6,0,0,0-43.4,49.5q.413,31.043,3,62c3,26,29.4,27.2,29.4,27.2l1.2,17,11.1,12.1,51.6-32-6.5-87.8" fill="#f9a78d"/>
        <path id="Pfad_184" data-name="Pfad 184" d="M282.9,170.8s16.4-.7,32.7-13.5c0,0-5.5,23.5-31.6,23.9l-1.1-10.4" fill="#f57f62"/>
        <path id="Pfad_185" data-name="Pfad 185" d="M265.4,102.5a3.715,3.715,0,0,0,4,3.4,3.591,3.591,0,0,0,3.4-3.8,3.7,3.7,0,0,0-4-3.3,3.388,3.388,0,0,0-3.4,3.7m-8.3-10.9c.5.4,3.1-2,7.1-2.4s7.1,1.3,7.5.8c.2-.3-.4-1.1-1.7-1.9a10.2,10.2,0,0,0-11.7,1.3c-1,1-1.4,2-1.2,2.2m43.5,7.9a3.715,3.715,0,0,0,4,3.4,3.591,3.591,0,0,0,3.4-3.8,3.7,3.7,0,0,0-4-3.3,3.441,3.441,0,0,0-3.4,3.7M296.3,89c.5.5,3.1-1.9,7.1-2.3s7.1,1.3,7.5.8c.2-.3-.4-1.1-1.7-1.9a10.2,10.2,0,0,0-11.7,1.3c-1,1-1.4,2-1.2,2.2m-11,32.1c0-.2-2.6-.4-6.6-.5-1,0-2-.1-2.3-.8a4.883,4.883,0,0,1,.4-3l2.2-8.1c3-11.5,5-20.9,4.6-21-.5-.1-3.3,9-6.3,20.5l-2,8.1c-.3,1.2-.9,2.6-.2,4a2.636,2.636,0,0,0,1.9,1.4h1.7c4-.1,6.6-.4,6.6-.6m12,1.5c-.7,0-.2,4.4-3.6,7.8-3.4,3.5-8,3.5-8,4,0,.4,1.1.8,3,.7a10.9,10.9,0,0,0,6.8-3.2,9.749,9.749,0,0,0,2.7-6.5c0-1.8-.6-2.9-1-2.8m-2.4-49.8c.6,1,4.5,0,9.2.2,4.7,0,8.7.9,9.2-.1.2-.5-.6-1.5-2.2-2.4a14.768,14.768,0,0,0-7-1.6,15.4,15.4,0,0,0-7,1.6c-1.6.8-2.4,1.8-2.2,2.3m-37.4,5.3c.8.8,3.4-.4,6.7-.8,3.3-.5,6.2,0,6.7-1,.3-.6-.3-1.4-1.6-2.2a9.774,9.774,0,0,0-10.8,1.5c-1,1-1.4,2-1,2.5" fill="#17282f"/>
        <path id="Pfad_186" data-name="Pfad 186" d="M340.2,99.3c.4-.2,17.3-7.2,18.6,10.6s-16.8,15.5-17,15l-1.6-25.6" fill="#f9a78d"/>
        <path id="Pfad_187" data-name="Pfad 187" d="M346.8,117.7l.9.4a3,3,0,0,0,2.3-.1c1.8-.8,3.2-4,3-7.2a10.133,10.133,0,0,0-1.1-4.3,3.705,3.705,0,0,0-2.5-2.2,1.491,1.491,0,0,0-1.8,1c-.2.5,0,.8-.2.9a1.047,1.047,0,0,1-.3-1,1.974,1.974,0,0,1,.6-1.2,2.523,2.523,0,0,1,1.7-.6c1.4,0,2.7,1.2,3.5,2.5a10.815,10.815,0,0,1,1.4,4.9c.2,3.6-1.4,7-4,8a3.129,3.129,0,0,1-2.8-.3,1.576,1.576,0,0,1-.7-.8" fill="#f57f62"/>
        <path id="Pfad_188" data-name="Pfad 188" d="M260,51.2c-2.9-1.4,5.1-11.3,12-15,10.4-5.5,26.5-9.6,36.6-7.4a43,43,0,0,1,29,18.3,70.1,70.1,0,0,1,10.1,35.2c.1,3.8,0,7.7-1.8,11-2.2,4.2-6.8,7-6.3,12.4a7.157,7.157,0,0,1-1.5,5.5c-3,3.7-7.2.7-9.2-2.5-4.4-6.7-5.4-15-6.2-23a52,52,0,0,1,0-17c.7-3,2-5.8,2.4-8.9.5-3,.2-6.5-1.8-8.8a18.6,18.6,0,0,0-20.2-3.7c-9.8,4.2-26.5,10.6-31.2,7.5-6.8-4.5-8.5-7.6-8.5-7.6l-3.3,4" fill="#17282f"/>
        <path id="Pfad_189" data-name="Pfad 189" d="M242,207.3c-1.1,1.4-15.7,6.2-21.2,15.4-5.5,9.3-11,50.6-11,50.6l-3.5,27.2a237,237,0,0,0,26,35.8l9.6-129" fill="#33535f"/>
        <g id="Gruppe_89" data-name="Gruppe 89" transform="translate(0 585.5)" clip-path="url(#clip-path)">
            <path id="Pfad_190" data-name="Pfad 190" d="M406.83-291.139h1.213v-16.853H406.83Z" fill="#a7a9a8"/>
        </g>
        <path id="Pfad_192" data-name="Pfad 192" d="M405.1,294.4a66.556,66.556,0,0,1-22.4-4c-2.8-1-5.6-2.2-7.5-4.4-1.7-1.9-2.6-4.3-4.4-6-1.7-1.6-4-2.4-6-3.5a23.6,23.6,0,0,1-10.2-12.9c-2-5.2-2.6-10.9-3.2-16.4l55.4,30.3,1,8.2q.053,4.2-.3,8.4v.3h-2.4" fill="#20353d"/>
        <path id="Pfad_193" data-name="Pfad 193" d="M396.3,187.2s18.4,5.5,23.7,13.3c5.4,7.8,15,38.2,17,43.8,1.9,5.6.2,18.7-3.5,28-3.7,9.4-10,17.5-21,18.7a53.4,53.4,0,0,1-32.3-9.3c-4-4.1-5.6-13.5-5.6-13.5a89.211,89.211,0,0,0,14.4-3.6" fill="#33535f"/>
        <path id="Pfad_194" data-name="Pfad 194" d="M389,264.6l-.2.1q-1.7.536-3.4,1.1a74.775,74.775,0,0,1-10.8,2.6l.2-.2a45.3,45.3,0,0,0,3.5,10.4,14.576,14.576,0,0,0,2.4,3.3,19.971,19.971,0,0,0,3.7,2.5l4.4,2a68.2,68.2,0,0,0,20.7,4.4h2.9a23.032,23.032,0,0,0,2.8-.6,20,20,0,0,0,5.6-2.1,25.539,25.539,0,0,0,8.7-8.6,44.626,44.626,0,0,0,5.2-11.8,67.7,67.7,0,0,0,2.6-19.5,17,17,0,0,0-1-4.5l-1.4-4.5-2.9-8.5c-1.9-5.6-3.7-10.9-5.6-15.8-2-4.8-3.7-9.4-6-13.2a15.362,15.362,0,0,0-4-4.7,73.6,73.6,0,0,0-18.2-9.1l-1.4-.5c-.4,0-.5-.1-.5-.2l.5.2,1.4.4a81.9,81.9,0,0,1,13.7,5.8,29.164,29.164,0,0,1,4.7,3.1,16.226,16.226,0,0,1,4.3,4.7c2.3,3.9,4,8.5,6,13.3,2,5,3.8,10.2,5.7,15.8l3,8.5,1.4,4.5a17.032,17.032,0,0,1,1,4.7,68,68,0,0,1-2.6,19.7,49.788,49.788,0,0,1-5.3,12,25.6,25.6,0,0,1-9,8.7,21,21,0,0,1-5.7,2.2l-3,.6h-3a49.442,49.442,0,0,1-11-1.4,68.1,68.1,0,0,1-14.2-5.2,16.673,16.673,0,0,1-3.8-2.5,14.47,14.47,0,0,1-2.6-3.5l-1.5-3.7a45,45,0,0,1-1.9-6.8v-.2h.2a109.705,109.705,0,0,0,13.5-3.2l.7-.2h.2" fill="#17282f"/>
        <path id="Pfad_195" data-name="Pfad 195" d="M422.8,254.8c-.2,0-.6-2.3-2.1-5.7a38.6,38.6,0,0,0-8.3-11.7,25,25,0,0,0-6.5-4.6l-1.6-.7a7.58,7.58,0,0,0-1.6-.6l-3-.6h-2.4a5.568,5.568,0,0,0-1.9.1l-1.6.2,1.6-.5c.5,0,1.1-.3,1.9-.3h2.5a15.943,15.943,0,0,1,3,.6l1.7.5,1.7.7a25.9,25.9,0,0,1,6.6,4.7,36.2,36.2,0,0,1,9.2,14.4l.5,1.9.3,1.6m10-16.5c-.2,0-.7-2.4-2.8-5.6a21.408,21.408,0,0,0-11.7-8.9c-5.6-1.7-11.1-1.1-15-.8q-3.1.352-6.2.7l1.6-.4,4.6-.8a36.663,36.663,0,0,1,15.2.7,21,21,0,0,1,12,9.2,18.9,18.9,0,0,1,2.3,6M419,218.6c-.1.2-5-1.3-11-1-6,.1-10.7,2-10.8,1.8a14.428,14.428,0,0,1,3-1.2,30.2,30.2,0,0,1,18.7.4m-29.7-26.8-.4,5a74.6,74.6,0,0,0,2,23h-.5q-.84-2.487-1.6-5l.6,1.3,1.5,3.6-.5.1a60.4,60.4,0,0,1-1.1-28" fill="#17282f"/>
        <path id="Pfad_196" data-name="Pfad 196" d="M363.2,157.6s-9.5,0-10.7,11.5c-1,8.8,0,17.3,0,21.2,0,3.8-1.7,17.5-1.7,17.5s-6.5,5.8-6.4,12.7c0,7,5,9.1,5,9.1a11.849,11.849,0,0,0,2.8,12.7s-2.8,6.4-.5,10.7a10.324,10.324,0,0,0,5.7,4.4s-2.8,6.3,4,9c4,1.5,9.9,1.2,9.9,1.2l7.1-.1,6.3,3.4s10.7-4.7,11-11l.3-6.3s-3-10.5-3.3-13.8,2.4-11.3.8-14.8c-1.7-3.6-7.4-5.7-6.9-10.7.6-5-.5-7.8-3-10.5a77,77,0,0,0-13.4-8.3s-2.9-8-2.9-13.5,5.5-22.3-4-24.4" fill="#f9a78d"/>
        <path id="Pfad_197" data-name="Pfad 197" d="M369.6,197.6l-2.6,1.7q-7.942,4.544-16.2,8.5l2.6-1.7q7.94-4.548,16.2-8.5m6.3,21.5-.8.8-2.5,1.7a49.3,49.3,0,0,1-22.8,7.5l4-.8a63.3,63.3,0,0,0,18.5-7l3.6-2.2m8.1-6.8c.3,0-.1,1.3-1.2,2.3-1.2,1-2.4,1.3-2.4,1-.1-.1,1-.6,1.9-1.5,1-1,1.6-1.9,1.8-1.8M380.2,238a77.5,77.5,0,0,1-28.5,4.6l4.2-.4A116.9,116.9,0,0,0,376,239l4.2-1m8.7-1.6.7-2a11.036,11.036,0,0,0,.5-5,11.234,11.234,0,0,0-1.7-4.8l-1.2-1.9a6.509,6.509,0,0,1,1.6,1.6,10.5,10.5,0,0,1,1.3,10.3,5.408,5.408,0,0,1-1.2,1.8m-8.2,20.9a51.8,51.8,0,0,1-23.5,0,77.7,77.7,0,0,0,20,.4,19.786,19.786,0,0,1,3.5-.4m-17-75.1a3.511,3.511,0,0,1-1.3.7,8.3,8.3,0,0,1-7.1-.8c-.8-.5-1.2-1-1.1-1,0-.2,2,1.2,4.6,1.5,2.7.4,4.8-.6,5-.4m27.1,55,.1,1a11.31,11.31,0,0,1-.3,2.9l-1.1,4a11,11,0,0,0-.5,4.8c.2,1.7,1.4,3.1,1.6,4.8a5.865,5.865,0,0,1-1,4.1,14.3,14.3,0,0,1-2.5,3,24.491,24.491,0,0,0,2-3.2,5.866,5.866,0,0,0,1-3.8c-.2-1.4-1.5-2.8-1.8-4.7a12.31,12.31,0,0,1,.5-5.2l1.3-4c.7-2.2.5-3.6.7-3.7" fill="#f57f62"/>
        <path id="Pfad_198" data-name="Pfad 198" d="M394.4,245.6l.5,1.3a42.5,42.5,0,0,1,1.5,8.8,15.972,15.972,0,0,1-1.2,6.6,19.7,19.7,0,0,1-4.1,5.2,37.3,37.3,0,0,1-8.5,5.8l4-2.9a36.413,36.413,0,0,0,4-3.4,19,19,0,0,0,4-5,14.019,14.019,0,0,0,1.1-6.3,38,38,0,0,0-.4-5.2l-.9-4.9M293.8,201.2a7.863,7.863,0,0,1-1.5-1.1l-4-3.4-2.8-2.3-1.6-1.1a2,2,0,0,0-1.8,0c-1.1.5-1.9,2-2.9,3.2l-3,4-4.5,6.1-.9,1.2.3-1.4a69.5,69.5,0,0,1,4.9-14.8l-1.2,3.3a68,68,0,0,0-3,11.6l-.6-.3,4.5-6.1q2.2-2.953,4.4-5.9a6.479,6.479,0,0,1,1.7-1.6,3.3,3.3,0,0,1,2.4.1l1.7,1.3,2.7,2.4,3.9,3.5,1.3,1.3M350.1,190l-.5.4-1.6,1.3-5.8,4.4-19.7,14.4-.3.2-.2-.3-.4-.7-9.9-15.6.4.1a100.9,100.9,0,0,0-11,5.5l-2.8,1.8-1,.6.8-.7,2.9-2a58.619,58.619,0,0,1,10.9-5.7l.2-.1.1.2,10,15.5.4.7h-.5l19.8-14.3,6-4.3,1.6-1,.6-.4M230.5,243v1l.1,2.6.2,10c.2,8.3.5,19.9,1,32.7q.71,23.143.5,46.3v-1l-.2-2.6-.1-10c-.2-8.3-.5-20-1-32.7q-.71-23.143-.5-46.3m63.8,120.4-.1-.4-.1-1-.5-4.4q-1.911-19.947-2.2-40-.576-29.264,1.3-58.5,1.577-22.125,4.7-44.1-1.113,10.146-2.2,20.3a728.188,728.188,0,0,0-1.3,122.2l.3,4.4v1.5" fill="#17282f"/>
        <path id="Pfad_199" data-name="Pfad 199" d="M254.5,145.2l-1.4,1a47.041,47.041,0,0,0-4.1,2.6c-1.9,1.2-4,3-6.6,4.8l-4,3.3-2.1,1.8-2.2,2a123.21,123.21,0,0,0-19.3,23.2l-2.4,3.8-2.2,4.1-2.3,4.2-2,4.5-1,2.3-1,2.4-1.8,4.9c-1,3.4-2.2,6.8-3,10.4A120.777,120.777,0,0,0,401.7,334.7l2.7-2.9L407,329l2.5-3,2.4-3a120.2,120.2,0,0,0,25-66.8l.3-6.6c0-2.3-.2-4.5-.3-6.6v-3.3l-.4-3.2-.8-6.3-1.2-6.1c-.4-2-.8-4-1.4-6l-2.6-8.6-1-2.7c-.7-1.8-1.3-3.6-2.1-5.3l-2.4-5.1a119.8,119.8,0,0,0-51.9-54,25.314,25.314,0,0,0-2.3-1.2l-2.3-1-4-2a18,18,0,0,0-3.4-1.3l-4.6-1.8q0-.05,0-.1l4.7,1.7,3.4,1.4,4,1.8,2.3,1.1,2.4,1.2,5,3a120,120,0,0,1,47,51,46.631,46.631,0,0,1,2.5,5l2.2,5.4,1,2.8,1,2.8,1.6,5.8a43.36,43.36,0,0,1,1.4,6,59.814,59.814,0,0,1,1.2,6.1l.8,6.4.4,3.2.1,3.2.3,6.7-.2,6.7a122.7,122.7,0,0,1-25.2,67.1l-2.3,3-2.6,3-2.6,2.9-2.7,2.8A121.2,121.2,0,0,1,198.7,220.4c.7-3.6,2-7,3-10.5l1.8-4.8,1-2.4,1-2.4,2-4.5,2.3-4.2a38.094,38.094,0,0,1,2.3-4l2.4-3.9a116.244,116.244,0,0,1,19.4-23.1l2.2-2,2.2-2,4-3.2c2.6-1.8,4.7-3.5,6.6-4.7l4.2-2.6,1.4-1" fill="#17282f"/>
    </g>
</svg>
