<svg id="support" xmlns="http://www.w3.org/2000/svg" width="24.833" height="31.684" viewBox="0 0 24.833 31.684">
	<g id="Gruppe_71" data-name="Gruppe 71" transform="translate(0 0)">
		<path id="Pfad_78" data-name="Pfad 78" d="M74.974,29.948c.77-.947,11.041-9.889,11.041-17.532a12.417,12.417,0,1,0-24.833,0c0,7.642,10.337,16.684,11.13,17.532a14.687,14.687,0,0,1,1.379,1.736S74.2,30.9,74.974,29.948ZM85.059,12.417Z" transform="translate(-61.182)" fill="#00acfe"/>
		<path id="Pfad_79" data-name="Pfad 79" d="M133.4,69.008a8.732,8.732,0,0,0,2.9-5.337.478.478,0,1,0-.946-.135,7.786,7.786,0,0,1-5.121,6.234v-.354A5.1,5.1,0,0,1,131.549,66l.022-.025a5.262,5.262,0,0,0-1.328-8.083.889.889,0,0,0-1.33.772v3.559a.6.6,0,0,1-.6.6h-1.328a.6.6,0,0,1-.6-.6V58.662a.889.889,0,0,0-1.33-.772,5.262,5.262,0,0,0-1.328,8.083l.022.024a5.1,5.1,0,0,1,1.32,3.418v.354a7.781,7.781,0,1,1,10.3-8.34.478.478,0,0,0,.948-.122,8.738,8.738,0,1,0-2.916,7.7Zm-8.944-3.652-.018-.02a4.306,4.306,0,0,1,.989-6.557v3.442a1.56,1.56,0,0,0,1.558,1.558h1.328a1.56,1.56,0,0,0,1.558-1.558V58.779a4.306,4.306,0,0,1,.989,6.557l-.019.021a6.06,6.06,0,0,0-1.565,4.058v.623a7.788,7.788,0,0,1-1.148.157v-3.8a.478.478,0,0,0-.956,0v3.8a7.755,7.755,0,0,1-1.148-.156v-.623A6.061,6.061,0,0,0,124.454,65.356Z" transform="translate(-115.231 -50.27)" fill="#fff"/>
	</g>
</svg>
